<svg xmlns="http://www.w3.org/2000/svg" xmlns:xlink="http://www.w3.org/1999/xlink" viewBox="0 0 996.97 306"><defs><clipPath id="a" transform="translate(-158 -48)"><rect x="158" y="48" width="306" height="306" fill="none"/></clipPath></defs><title>banner</title><g clip-path="url(#a)"><rect width="306" height="306" fill="#004482"/><polygon points="0 0 0 306 67.79 306 67.79 273.09 35.1 273.09 35.1 33.62 67.79 33.62 67.79 0 0 0" fill="#649ad2"/><polygon points="237.62 0 237.62 33.62 270.3 33.62 270.3 273.09 237.62 273.09 237.62 306 306 306 306 0 237.62 0" fill="#649ad2"/><polygon points="127.3 247.43 127.3 109.37 172.72 109.37 172.72 77.69 48.41 77.69 48.41 109.37 94.43 109.37 94.43 247.43 127.3 247.43" fill="#fff"/><polygon points="256.69 163.46 241.45 163.46 241.45 148.22 222.33 148.22 222.33 163.46 207.09 163.46 207.09 182.58 222.33 182.58 222.33 197.82 241.45 197.82 241.45 182.58 256.69 182.58 256.69 163.46" fill="#fff"/><polygon points="192.74 163.46 177.5 163.46 177.5 148.22 158.38 148.22 158.38 163.46 143.14 163.46 143.14 182.58 158.38 182.58 158.38 197.82 177.5 197.82 177.5 182.58 192.74 182.58 192.74 163.46" fill="#fff"/></g><path d="M541.72,146.68v15.84H554.8V176H541.72V197.2c0,7.08,1.8,10.32,7.2,10.32a22.43,22.43,0,0,0,5.4-.48l.12,13.8a38.39,38.39,0,0,1-11.76,1.56c-5.88,0-10.8-2-13.8-5-3.36-3.48-5-9.12-5-17.4V176H516V162.52h7.8V151.6Z" transform="translate(-158 -48)" fill="currentColor"/><path d="M622.72,191.2c0,21.48-15.24,31.32-31,31.32-17.16,0-30.36-11.28-30.36-30.24s12.48-31.2,31.44-31.2C610.72,161.08,622.72,173.44,622.72,191.2Zm-42.48.6c0,10.08,4.2,17.64,12,17.64,7.2,0,11.64-7.08,11.64-17.76,0-8.64-3.36-17.52-11.64-17.52C583.6,174.16,580.24,183.16,580.24,191.8Z" transform="translate(-158 -48)" fill="currentColor"/><path d="M634,181.24c0-7.32-.24-13.44-.48-18.72H649l.72,7.92h.36a20.31,20.31,0,0,1,17.76-9.36c7.68,0,13.56,4,16.08,10.08h.24a25.52,25.52,0,0,1,7.68-7.2A22.34,22.34,0,0,1,703,161.08c11.28,0,19.8,7.92,19.8,25.56V221.2H705V189.28c0-8.52-2.76-13.44-8.64-13.44-4.32,0-7.2,2.88-8.52,6.36a19.2,19.2,0,0,0-.6,4.68V221.2H669.52v-33c0-7.32-2.64-12.36-8.52-12.36-4.68,0-7.44,3.6-8.52,6.48a12.34,12.34,0,0,0-.72,4.68v34.2H634Z" transform="translate(-158 -48)" fill="currentColor"/><path d="M737.2,136h18.24v85.2H737.2Z" transform="translate(-158 -48)" fill="currentColor"/><path d="M804.52,157.36v26.16h25.07v11.16H804.52V221.2H792.76V194.68H767.68V183.52h25.08V157.36Z" transform="translate(-158 -48)" fill="currentColor"/><path d="M876,157.36v26.16h25.07v11.16H876V221.2H864.28V194.68H839.2V183.52h25.08V157.36Z" transform="translate(-158 -48)" fill="currentColor"/><path d="M519.89,252.26h-5.35v-5.45h16.65v5.45h-5.4v24.88h-5.9Z" transform="translate(-158 -48)" fill="currentColor"/><path d="M551.62,261.43c0,11.43-4,16.07-9.81,16.07-6.88,0-9.58-7.29-9.58-15.62s3.28-15.43,10-15.43C549.55,246.45,551.62,254.5,551.62,261.43Zm-13.27.54c0,6.89,1.3,10.4,3.69,10.4s3.46-4.5,3.46-10.66c0-5.32-.81-10.13-3.51-10.13C539.65,251.58,538.35,255.45,538.35,262Z" transform="translate(-158 -48)" fill="currentColor"/><path d="M573.89,266.52c-.18-2.88-.36-6.8-.31-10h-.09c-.54,3.24-1.35,7-1.94,9.32l-2.65,10.84h-4.14L562.24,266c-.59-2.43-1.4-6.21-1.89-9.5h-.09c-.09,3.29-.31,7.11-.45,10.13l-.54,10.53h-5l2.16-30.33h6.25l2.43,11c.81,3.83,1.58,7.2,2.12,10.62h.13c.45-3.37,1.13-6.79,1.89-10.62l2.43-11h6.21l1.85,30.33h-5.27Z" transform="translate(-158 -48)" fill="currentColor"/><path d="M584,246.81h5.9v25.33h7.73v5H584Z" transform="translate(-158 -48)" fill="currentColor"/><path d="M619.93,276.78a10.41,10.41,0,0,1-3.74.63c-5.57,0-9.22-3.87-9.22-11,0-6.79,4-11.51,10.08-11.51a8.71,8.71,0,0,1,3.24.58l-.77,4.63a6.16,6.16,0,0,0-2.2-.4c-2.84,0-4.5,2.7-4.5,6.53s1.66,6.38,4.41,6.38a4.76,4.76,0,0,0,2.2-.45Z" transform="translate(-158 -48)" fill="currentColor"/><path d="M638.33,266.07c0,9.18-5.08,11.43-8.41,11.43-5.26,0-8.42-4.14-8.42-11.29,0-7.92,4.14-11.48,8.51-11.48C635.23,254.73,638.33,259.09,638.33,266.07Zm-11,0c0,3.78.59,6.93,2.7,6.93,1.94,0,2.43-3.69,2.43-6.93,0-3-.49-6.84-2.52-6.84S627.35,263.05,627.35,266.07Z" transform="translate(-158 -48)" fill="currentColor"/><path d="M641.67,261.75c0-2.38-.1-4.5-.19-6.62h5.09l.31,2.52H647a6.31,6.31,0,0,1,5.31-2.87c4.19,0,5.85,3.33,5.85,8.23v14.13h-5.89V263.37c0-1.84-.45-3.65-2.16-3.65-1,0-1.8.68-2.21,2a5.73,5.73,0,0,0-.31,2v13.41h-5.89Z" transform="translate(-158 -48)" fill="currentColor"/><path d="M663.31,277.14V259.32h-3v-4.19h3V254c0-2.83,1.8-8.32,9.76-8.32a13.21,13.21,0,0,1,5.18.9l-.81,4.64a12,12,0,0,0-4.14-.72c-3.2,0-4.1,1.84-4.1,3.91v.76h10.94v22h-5.9V259.32h-5v17.82Z" transform="translate(-158 -48)" fill="currentColor"/><path d="M700.34,274.66c0,4.73-.9,7.34-2.65,9a10,10,0,0,1-7.16,2.43,13.82,13.82,0,0,1-5.49-1l1.08-4.54a9.3,9.3,0,0,0,4.19.94c3,0,4.14-2,4.14-5.35V274.8h-.09a4.46,4.46,0,0,1-4,2.2c-4.91,0-6.84-5.4-6.84-10.66,0-7.34,3.33-11.61,7.38-11.61a4.43,4.43,0,0,1,4,2.65h.09l.31-2.25h5.18c-.14,2-.23,4.33-.23,7Zm-5.89-11.52a5.58,5.58,0,0,0-.23-1.61c-.27-.95-.9-1.81-1.89-1.81-2.11,0-3,2.89-3,6.49,0,4.09,1.17,6.16,2.88,6.16a2.06,2.06,0,0,0,1.94-1.58,4.53,4.53,0,0,0,.27-1.75Z" transform="translate(-158 -48)" fill="currentColor"/><path d="M711.5,262.11c0-2.65-.09-4.86-.18-7h5.13l.32,2.52h.09a5.07,5.07,0,0,1,4.63-2.92c4.82,0,6.8,5.26,6.8,11.39,0,7.82-3.42,11.38-7.16,11.38a4.28,4.28,0,0,1-3.64-2.16h-.09v10.44h-5.9Zm5.9,7a4.45,4.45,0,0,0,.31,1.84c.45,1.35,1.22,1.71,1.89,1.71,2.07,0,2.84-3.05,2.84-6.52,0-4.19-1-6.44-2.79-6.44a2.28,2.28,0,0,0-2,1.9,3.52,3.52,0,0,0-.27,1.57Z" transform="translate(-158 -48)" fill="currentColor"/><path d="M746.51,272.1a34.56,34.56,0,0,0,.32,5h-5.27l-.31-2.16h-.14a5.81,5.81,0,0,1-4.86,2.52c-3.33,0-5.8-2.79-5.8-6.66,0-5.8,5.08-8.14,10.08-8.19v-.5a2.79,2.79,0,0,0-3.11-3,8.31,8.31,0,0,0-4.5,1.31l-1.08-4a15.19,15.19,0,0,1,6.89-1.66c6.7,0,7.78,4.68,7.78,9.18Zm-5.8-5.67c-1.94,0-4.68.72-4.68,3.78,0,2.16,1.21,3,2.11,3a2.52,2.52,0,0,0,2.43-1.89,3.64,3.64,0,0,0,.14-1Z" transform="translate(-158 -48)" fill="currentColor"/><path d="M750.65,261.75c0-2.16-.09-4.54-.18-6.62h5.09l.31,3.2h.18c1-2.34,2.75-3.6,4.32-3.6a4.18,4.18,0,0,1,1.26.14v5.8a11.85,11.85,0,0,0-1.26,0,3.83,3.83,0,0,0-3.55,3.1,7.13,7.13,0,0,0-.27,2.2v11.21h-5.9Z" transform="translate(-158 -48)" fill="currentColor"/><path d="M763.7,271.83a8.27,8.27,0,0,0,4,1.17c1.53,0,2.39-.68,2.39-2,0-1.13-.63-1.85-2.57-3-3.55-2-4.45-4.32-4.45-6.34,0-4,2.83-7,7.24-7a9.66,9.66,0,0,1,4.46,1l-1,4.31a6.14,6.14,0,0,0-3.06-.89c-1.53,0-2.2.89-2.2,1.88s.49,1.54,2.56,2.75c3.24,1.84,4.46,4.14,4.46,6.66,0,4.5-3.24,6.93-7.79,6.93a9.44,9.44,0,0,1-5-1.26Z" transform="translate(-158 -48)" fill="currentColor"/><path d="M783.41,268.23c.05,3.42,2.07,4.68,4.64,4.68a13.21,13.21,0,0,0,4.18-.72l.77,4.23a17.84,17.84,0,0,1-6,1c-6,0-9.31-4-9.31-10.85,0-7.42,3.87-11.83,8.82-11.83,4.72,0,7.47,3.73,7.47,10.44a20.5,20.5,0,0,1-.18,3.06Zm5.22-4.14c0-2.84-.72-5-2.47-5s-2.7,2.83-2.75,5Z" transform="translate(-158 -48)" fill="currentColor"/><path d="M797.32,261.75c0-2.16-.09-4.54-.18-6.62h5.08l.32,3.2h.18c.94-2.34,2.74-3.6,4.32-3.6a4.22,4.22,0,0,1,1.26.14v5.8a12,12,0,0,0-1.26,0,3.84,3.84,0,0,0-3.56,3.1,7.13,7.13,0,0,0-.27,2.2v11.21h-5.89Z" transform="translate(-158 -48)" fill="currentColor"/><path d="M832.55,272.1a34.56,34.56,0,0,0,.32,5H827.6l-.31-2.16h-.14a5.81,5.81,0,0,1-4.86,2.52c-3.33,0-5.8-2.79-5.8-6.66,0-5.8,5.08-8.14,10.08-8.19v-.5a2.79,2.79,0,0,0-3.11-3,8.31,8.31,0,0,0-4.5,1.31l-1.08-4a15.19,15.19,0,0,1,6.89-1.66c6.7,0,7.78,4.68,7.78,9.18Zm-5.8-5.67c-1.94,0-4.68.72-4.68,3.78,0,2.16,1.21,3,2.11,3a2.52,2.52,0,0,0,2.43-1.89,3.64,3.64,0,0,0,.14-1Z" transform="translate(-158 -48)" fill="currentColor"/><path d="M836.69,261.75c0-2.38-.09-4.5-.18-6.62h5.09l.31,2.52H842a6.31,6.31,0,0,1,5.31-2.87c4.19,0,5.85,3.33,5.85,8.23v14.13h-5.89V263.37c0-1.84-.45-3.65-2.16-3.65-1,0-1.8.68-2.21,2a5.73,5.73,0,0,0-.31,2v13.41h-5.9Z" transform="translate(-158 -48)" fill="currentColor"/><path d="M873.27,246v24.61c0,2.07.09,4.5.19,6.53h-5.09l-.32-2.48h-.13a5.34,5.34,0,0,1-4.55,2.84c-4.67,0-6.83-5.18-6.83-11.34,0-7.65,3.37-11.43,7.06-11.43a3.8,3.8,0,0,1,3.69,2.25h.09V246Zm-5.89,17.59a6.37,6.37,0,0,0-.09-1.3c-.18-1.35-.9-2.57-2.07-2.57-2.07,0-2.84,3-2.84,6.57,0,4.19,1.13,6.39,2.75,6.39.77,0,1.62-.4,2.07-1.93a4,4,0,0,0,.18-1.4Z" transform="translate(-158 -48)" fill="currentColor"/><path d="M884.39,271.83a8.27,8.27,0,0,0,4,1.17c1.53,0,2.38-.68,2.38-2,0-1.13-.63-1.85-2.56-3-3.55-2-4.46-4.32-4.46-6.34,0-4,2.84-7,7.25-7a9.64,9.64,0,0,1,4.45,1l-1,4.31a6.17,6.17,0,0,0-3.06-.89c-1.53,0-2.21.89-2.21,1.88s.5,1.54,2.57,2.75c3.24,1.84,4.45,4.14,4.45,6.66,0,4.5-3.24,6.93-7.78,6.93a9.45,9.45,0,0,1-5-1.26Z" transform="translate(-158 -48)" fill="currentColor"/><path d="M904.1,268.23c0,3.42,2.07,4.68,4.63,4.68a13.22,13.22,0,0,0,4.19-.72l.76,4.23a17.78,17.78,0,0,1-6,1c-6,0-9.32-4-9.32-10.85,0-7.42,3.87-11.83,8.82-11.83,4.73,0,7.47,3.73,7.47,10.44a20.5,20.5,0,0,1-.18,3.06Zm5.22-4.14c0-2.84-.72-5-2.48-5s-2.7,2.83-2.74,5Z" transform="translate(-158 -48)" fill="currentColor"/><path d="M918,261.75c0-2.16-.09-4.54-.18-6.62h5.09l.31,3.2h.18c1-2.34,2.75-3.6,4.32-3.6a4.18,4.18,0,0,1,1.26.14v5.8a11.85,11.85,0,0,0-1.26,0,3.83,3.83,0,0,0-3.55,3.1,7.13,7.13,0,0,0-.27,2.2v11.21H918Z" transform="translate(-158 -48)" fill="currentColor"/><path d="M937.13,249.33a3,3,0,0,1-3.11,3.2,3,3,0,0,1-2.92-3.2,3,3,0,1,1,6,0Zm-5.9,27.81v-22h5.9v22Z" transform="translate(-158 -48)" fill="currentColor"/><path d="M956.12,272.1a36.08,36.08,0,0,0,.31,5h-5.26l-.32-2.16h-.13a5.82,5.82,0,0,1-4.86,2.52c-3.33,0-5.81-2.79-5.81-6.66,0-5.8,5.09-8.14,10.08-8.19v-.5a2.79,2.79,0,0,0-3.1-3,8.28,8.28,0,0,0-4.5,1.31l-1.08-4a15.17,15.17,0,0,1,6.88-1.66c6.71,0,7.79,4.68,7.79,9.18Zm-5.81-5.67c-1.93,0-4.68.72-4.68,3.78,0,2.16,1.22,3,2.12,3a2.53,2.53,0,0,0,2.43-1.89,3.65,3.65,0,0,0,.13-1Z" transform="translate(-158 -48)" fill="currentColor"/><path d="M960.26,246h5.89v31.14h-5.89Z" transform="translate(-158 -48)" fill="currentColor"/><path d="M976.28,249.33a3,3,0,0,1-3.11,3.2,3,3,0,0,1-2.92-3.2,3,3,0,1,1,6,0Zm-5.9,27.81v-22h5.9v22Z" transform="translate(-158 -48)" fill="currentColor"/><path d="M979.16,273.45l5.4-9.81c.72-1.22,1.62-2.7,2.07-3.56V260h-6.8v-4.82H993v4l-5.27,9.45c-.72,1.3-1.57,2.7-2.07,3.6v.13h7.56v4.82H979.16Z" transform="translate(-158 -48)" fill="currentColor"/><path d="M1000.85,268.23c0,3.42,2.07,4.68,4.63,4.68a13.22,13.22,0,0,0,4.19-.72l.76,4.23a17.78,17.78,0,0,1-6,1c-6,0-9.32-4-9.32-10.85,0-7.42,3.87-11.83,8.82-11.83,4.73,0,7.47,3.73,7.47,10.44a20.5,20.5,0,0,1-.18,3.06Zm5.22-4.14c0-2.84-.72-5-2.48-5s-2.7,2.83-2.74,5Z" transform="translate(-158 -48)" fill="currentColor"/><path d="M1014.75,261.75c0-2.16-.09-4.54-.18-6.62h5.09l.31,3.2h.18c1-2.34,2.75-3.6,4.32-3.6a4.18,4.18,0,0,1,1.26.14v5.8a11.85,11.85,0,0,0-1.26,0,3.83,3.83,0,0,0-3.55,3.1,7.13,7.13,0,0,0-.27,2.2v11.21h-5.9Z" transform="translate(-158 -48)" fill="currentColor"/><path d="M1036.17,277.14V259.32h-3v-4.19h3v-.85a8.94,8.94,0,0,1,2.3-6.61,7,7,0,0,1,5.22-2,12.06,12.06,0,0,1,3.55.49l-.67,4.59a5.08,5.08,0,0,0-1.8-.26c-2,0-2.7,1.71-2.7,3.64v1h3.82v4.19h-3.82v17.82Z" transform="translate(-158 -48)" fill="currentColor"/><path d="M1063.71,266.07c0,9.18-5.08,11.43-8.41,11.43-5.27,0-8.42-4.14-8.42-11.29,0-7.92,4.14-11.48,8.51-11.48C1060.61,254.73,1063.71,259.09,1063.71,266.07Zm-11,0c0,3.78.59,6.93,2.7,6.93,1.94,0,2.43-3.69,2.43-6.93,0-3-.49-6.84-2.52-6.84S1052.73,263.05,1052.73,266.07Z" transform="translate(-158 -48)" fill="currentColor"/><path d="M1067,261.75c0-2.16-.09-4.54-.18-6.62H1072l.31,3.2h.18c1-2.34,2.75-3.6,4.32-3.6a4.18,4.18,0,0,1,1.26.14v5.8a12,12,0,0,0-1.26,0,3.83,3.83,0,0,0-3.55,3.1,7.13,7.13,0,0,0-.27,2.2v11.21H1067Z" transform="translate(-158 -48)" fill="currentColor"/><path d="M1102.5,276.69a12,12,0,0,1-4.54.72c-7.79,0-11.48-6.35-11.48-15,0-11.42,6.35-15.88,12.24-15.88a8.12,8.12,0,0,1,4.09.81l-1,5a6,6,0,0,0-2.75-.59c-3.33,0-6.34,2.89-6.34,10.4,0,7.24,2.74,10.08,6.34,10.08a10.63,10.63,0,0,0,2.84-.45Z" transform="translate(-158 -48)" fill="currentColor"/><path d="M1118.43,253.2v10.08h9.72V267h-9.72v10.17h-3.78V267h-9.72v-3.69h9.72V253.2Z" transform="translate(-158 -48)" fill="currentColor"/><path d="M1145.25,253.2v10.08H1155V267h-9.72v10.17h-3.78V267h-9.72v-3.69h9.72V253.2Z" transform="translate(-158 -48)" fill="currentColor"/></svg>
