<?xml version="1.0" encoding="UTF-8" standalone="no"?>
<!-- Created with Inkscape (http://www.inkscape.org/) -->

<svg
   xmlns:dc="http://purl.org/dc/elements/1.1/"
   xmlns:cc="http://creativecommons.org/ns#"
   xmlns:rdf="http://www.w3.org/1999/02/22-rdf-syntax-ns#"
   xmlns:svg="http://www.w3.org/2000/svg"
   xmlns="http://www.w3.org/2000/svg"
   xmlns:sodipodi="http://sodipodi.sourceforge.net/DTD/sodipodi-0.dtd"
   xmlns:inkscape="http://www.inkscape.org/namespaces/inkscape"
   width="76.111221mm"
   height="9.6190205mm"
   viewBox="0 0 76.111221 9.6190205"
   version="1.1"
   id="svg986"
   inkscape:version="0.92.5 (2060ec1f9f, 2020-04-08)"
   sodipodi:docname="abxy.svg">
  <defs
     id="defs980" />
  <sodipodi:namedview
     id="base"
     pagecolor="#ffffff"
     bordercolor="#666666"
     borderopacity="1.0"
     inkscape:pageopacity="0.0"
     inkscape:pageshadow="2"
     inkscape:zoom="1.979899"
     inkscape:cx="276.28204"
     inkscape:cy="77.212294"
     inkscape:document-units="mm"
     inkscape:current-layer="g1622"
     showgrid="false"
     fit-margin-top="0"
     fit-margin-left="0"
     fit-margin-right="0"
     fit-margin-bottom="0"
     inkscape:window-width="1920"
     inkscape:window-height="1043"
     inkscape:window-x="0"
     inkscape:window-y="0"
     inkscape:window-maximized="1" />
  <metadata
     id="metadata983">
    <rdf:RDF>
      <cc:Work
         rdf:about="">
        <dc:format>image/svg+xml</dc:format>
        <dc:type
           rdf:resource="http://purl.org/dc/dcmitype/StillImage" />
        <dc:title></dc:title>
      </cc:Work>
    </rdf:RDF>
  </metadata>
  <g
     inkscape:label="Layer 1"
     inkscape:groupmode="layer"
     id="layer1"
     transform="translate(-48.12296,-137.22026)"
     style="display:none">
    <circle
       style="opacity:0.9;fill:#1a1a1a;fill-opacity:1;stroke:none;stroke-width:0.26458332;stroke-opacity:1"
       id="path1694"
       cx="63.995201"
       cy="141.96429"
       r="4.6772165" />
    <text
       xml:space="preserve"
       style="font-style:normal;font-variant:normal;font-weight:normal;font-stretch:normal;font-size:6.3499999px;line-height:1.25;font-family:'Roboto Condensed';-inkscape-font-specification:'Roboto Condensed, Normal';font-variant-ligatures:normal;font-variant-caps:normal;font-variant-numeric:normal;font-feature-settings:normal;text-align:start;letter-spacing:0px;word-spacing:0px;writing-mode:lr-tb;text-anchor:start;fill:#000000;fill-opacity:1;stroke:none;stroke-width:0.26458332"
       x="62.234642"
       y="144.12724"
       id="text1698"><tspan
         sodipodi:role="line"
         id="tspan1696"
         x="62.234642"
         y="144.12724"
         style="stroke-width:0.26458332">A</tspan></text>
    <circle
       r="4.6772165"
       cy="141.96429"
       cx="79.870201"
       id="circle1580"
       style="opacity:0.9;fill:#1a1a1a;fill-opacity:1;stroke:none;stroke-width:0.26458332;stroke-opacity:1" />
    <text
       id="text1584"
       y="144.12724"
       x="78.109634"
       style="font-style:normal;font-variant:normal;font-weight:normal;font-stretch:normal;font-size:6.3499999px;line-height:1.25;font-family:'Roboto Condensed';-inkscape-font-specification:'Roboto Condensed, Normal';font-variant-ligatures:normal;font-variant-caps:normal;font-variant-numeric:normal;font-feature-settings:normal;text-align:start;letter-spacing:0px;word-spacing:0px;writing-mode:lr-tb;text-anchor:start;fill:#000000;fill-opacity:1;stroke:none;stroke-width:0.26458332"
       xml:space="preserve"><tspan
         style="stroke-width:0.26458332"
         y="144.12724"
         x="78.109634"
         id="tspan1582"
         sodipodi:role="line">B</tspan></text>
    <circle
       style="opacity:0.9;fill:#1a1a1a;fill-opacity:1;stroke:none;stroke-width:0.26458332;stroke-opacity:1"
       id="circle1586"
       cx="92.041039"
       cy="141.96429"
       r="4.6772165" />
    <text
       xml:space="preserve"
       style="font-style:normal;font-variant:normal;font-weight:normal;font-stretch:normal;font-size:6.3499999px;line-height:1.25;font-family:'Roboto Condensed';-inkscape-font-specification:'Roboto Condensed, Normal';font-variant-ligatures:normal;font-variant-caps:normal;font-variant-numeric:normal;font-feature-settings:normal;text-align:start;letter-spacing:0px;word-spacing:0px;writing-mode:lr-tb;text-anchor:start;fill:#000000;fill-opacity:1;stroke:none;stroke-width:0.26458332"
       x="90.280449"
       y="144.12724"
       id="text1590"><tspan
         sodipodi:role="line"
         id="tspan1588"
         x="90.280449"
         y="144.12724"
         style="stroke-width:0.26458332">X</tspan></text>
    <circle
       r="4.6772165"
       cy="141.96429"
       cx="104.74105"
       id="circle1592"
       style="opacity:0.9;fill:#1a1a1a;fill-opacity:1;stroke:none;stroke-width:0.26458332;stroke-opacity:1" />
    <text
       id="text1596"
       y="144.12724"
       x="102.98046"
       style="font-style:normal;font-variant:normal;font-weight:normal;font-stretch:normal;font-size:6.3499999px;line-height:1.25;font-family:'Roboto Condensed';-inkscape-font-specification:'Roboto Condensed, Normal';font-variant-ligatures:normal;font-variant-caps:normal;font-variant-numeric:normal;font-feature-settings:normal;text-align:start;letter-spacing:0px;word-spacing:0px;writing-mode:lr-tb;text-anchor:start;fill:#000000;fill-opacity:1;stroke:none;stroke-width:0.26458332"
       xml:space="preserve"><tspan
         style="stroke-width:0.26458332"
         y="144.12724"
         x="102.98046"
         id="tspan1594"
         sodipodi:role="line">Y</tspan></text>
  </g>
  <g
     transform="translate(-48.12296,-137.22026)"
     id="g1622"
     inkscape:groupmode="layer"
     inkscape:label="Layer 1 copy">
    <path
       style="opacity:1;fill:#000000;fill-opacity:1;stroke:none;stroke-width:0.26458332;stroke-opacity:1"
       d="m 52.800194,137.28692 a 4.6772165,4.6772165 0 0 0 -4.677234,4.67724 4.6772165,4.6772165 0 0 0 4.677234,4.67723 4.6772165,4.6772165 0 0 0 4.677234,-4.67723 4.6772165,4.6772165 0 0 0 -4.677234,-4.67724 z m -0.173116,2.32596 h 0.486792 l 1.457275,4.51445 h -0.58291 l -0.356567,-1.17822 H 52.10618 l -0.350367,1.17822 h -0.58291 z m 0.241846,0.79375 -0.613916,2.05259 h 1.230932 z"
       id="circle1598"
       inkscape:connector-curvature="0" />
    <path
       style="opacity:1;fill:#000000;fill-opacity:1;stroke:none;stroke-width:0.26458332;stroke-opacity:1"
       d="m 66.382135,137.28692 a 4.6772165,4.6772165 0 0 0 -4.677233,4.67724 4.6772165,4.6772165 0 0 0 4.677233,4.67723 4.6772165,4.6772165 0 0 0 4.677235,-4.67723 4.6772165,4.6772165 0 0 0 -4.677235,-4.67724 z m -1.273823,2.32596 h 1.286742 c 0.411345,0 0.720371,0.10025 0.927076,0.30076 0.208773,0.2005 0.313159,0.50126 0.313159,0.90227 0,0.21084 -0.05271,0.39687 -0.158129,0.5581 -0.10542,0.16123 -0.248046,0.28629 -0.427881,0.37517 0.206706,0.062 0.370004,0.18914 0.489892,0.38137 0.121957,0.19224 0.182935,0.42375 0.182935,0.69454 0,0.40514 -0.111622,0.72347 -0.334864,0.95498 -0.221173,0.23151 -0.537435,0.34726 -0.94878,0.34726 h -1.33015 z m 0.567406,0.48989 v 1.43557 h 0.728639 c 0.196371,0 0.354499,-0.0661 0.47439,-0.19844 0.121954,-0.13229 0.182933,-0.30799 0.182933,-0.52709 0,-0.24805 -0.05478,-0.42789 -0.16433,-0.53951 -0.109553,-0.11368 -0.276987,-0.17053 -0.502296,-0.17053 z m 0,1.91306 v 1.62471 h 0.775148 c 0.214973,0 0.385505,-0.0703 0.511595,-0.21084 0.126093,-0.14263 0.189138,-0.3421 0.189138,-0.59841 0,-0.54364 -0.229444,-0.81546 -0.68833,-0.81546 z"
       id="circle1604"
       inkscape:connector-curvature="0" />
    <path
       style="opacity:1;fill:#000000;fill-opacity:1;stroke:none;stroke-width:0.26458332;stroke-opacity:1"
       d="m 79.964081,137.28692 a 4.6772165,4.6772165 0 0 0 -4.677233,4.67724 4.6772165,4.6772165 0 0 0 4.677233,4.67723 4.6772165,4.6772165 0 0 0 4.677235,-4.67723 4.6772165,4.6772165 0 0 0 -4.677235,-4.67724 z m -1.524971,2.32596 h 0.663527 l 0.85576,1.73013 0.849562,-1.73013 h 0.666625 l -1.175123,2.23862 1.199928,2.27583 h -0.672828 l -0.868164,-1.76113 -0.871265,1.76113 h -0.672827 l 1.20613,-2.27583 z"
       id="circle1610"
       inkscape:connector-curvature="0" />
    <path
       style="opacity:1;fill:#000000;fill-opacity:1;stroke:none;stroke-width:0.26458332;stroke-opacity:1"
       d="m 93.546026,137.28692 a 4.6772165,4.6772165 0 0 0 -4.677233,4.67724 4.6772165,4.6772165 0 0 0 4.677233,4.67723 4.6772165,4.6772165 0 0 0 4.677235,-4.67723 4.6772165,4.6772165 0 0 0 -4.677235,-4.67724 z m -1.667598,2.32596 h 0.644922 l 0.923976,2.26653 0.923975,-2.26653 h 0.641821 l -1.283645,2.83083 v 1.68362 H 93.16207 v -1.68362 z"
       id="circle1616"
       inkscape:connector-curvature="0" />
  </g>
</svg>
