<svg viewBox="0 0 1024 1024" xmlns="http://www.w3.org/2000/svg" xmlns:svg="http://www.w3.org/2000/svg">
 <g class="layer">
  <title>Layer 1</title>
  <ellipse cx="61" cy="963" fill="#000000" id="svg_4" rx="58" ry="58" stroke="#ff0000" stroke-width="3"/>
  <path d="m6,199c0,-91 4.5,-146 8.5,-167c4,-21 8.5,-28 28.5,-28c20,0 91,-1 117,-0.5c26,0.5 34.5,19.5 41,27.5c6.5,8 5.5,7 19.5,7c14,0 124,-0.5 131,-0.5c7,0 9.5,2.5 22.5,9c13,6.5 40.5,16 91,15.5c50.5,-0.5 81.5,-13.5 93.5,-18.5c12,-5 15.5,-6 22,-6c6.5,0 123.5,0 137.5,0c14,0 10,-1.5 17,-8.5c7,-7 13,-25 42,-26c29,-1 83,0 111,0c28,0 31,14.5 33.5,34.5c2.5,20 8.5,107.5 8.5,163.5c0,56 1,216 0,260c-1,44 -8,150 -10,160c-2,10 -2,30 -25,30c-23,0 -106,0.67 -121.67,0.67c-15.67,0 -16.83,3.33 -32.5,-15.33c-15.67,-18.67 -21,-14.67 -17.17,-14.67c3.83,0 -508.83,0.83 -513.33,0.83c-4.5,0 -9.83,6 -19.83,18.5c-10,12.5 -18.5,13 -34.5,13c-16,0 -102,0 -115,0c-13,0 -25,-5 -27,-30c-2,-25 -11,-130 -10,-168c1,-38 2,-257 2,-257z" fill="#000000" id="svg_2" stroke="#ff0000" stroke-dasharray="null" stroke-linecap="null" stroke-linejoin="null" stroke-width="3"/>
  <path d="m27.33,38.67c2.17,-15.5 1.33,-20.67 20,-20.5c18.67,0.17 91.33,-0.83 107.33,-0.17c16,0.67 13.33,0.67 26.67,14c13.33,13.33 82.67,93.33 82.67,92.67c0,-0.67 408,-0.67 408,0c0,0.67 59.33,-72 75.33,-90c16,-18 20,-15.33 41.33,-15.33c21.33,0 88,-1.33 99.33,0.67c11.33,2 16,-2.67 20,18.67c4,21.33 12,133.33 11.33,161.33c-0.67,28 -1.33,234.67 -0.67,260.67c0.67,26 -6.67,140.67 -10.67,158.67c-4,18 -5.33,18.67 -19.33,18.67c-14,0 -97.33,-0.67 -111.33,-0.67c-14,0 -14,-0.67 -26,-13.33c-12,-12.67 -64,-70 -64,-70c0,0 -440,-0.67 -440,-0.67c0,0 -56,62.67 -66,74.67c-10,12 -10,13.33 -24,13.33c-14,0 -97,-0.17 -109,-0.17c-12,0 -21.33,-1.17 -23.33,-20.5c-2,-19.33 -9,-158 -9.67,-158c-0.67,0 2,-267.33 1.33,-267.33c-0.67,0 8.5,-141.17 10.67,-156.67l0.01,-0.01z" fill="#000000" fill-opacity="null" id="svg_5" stroke="#ff0000" stroke-dasharray="null" stroke-linecap="null" stroke-linejoin="null" stroke-opacity="null" stroke-width="3" transform="matrix(1, 0, 0, 1, 0, 0)"/>
  <line fill="none" fill-opacity="null" id="svg_55" stroke="#ff0000" stroke-dasharray="null" stroke-linecap="null" stroke-linejoin="null" stroke-opacity="null" stroke-width="3" transform="matrix(1, 0, 0, 1, 0, 0)" x1="4.74" x2="928.87" y1="454.38" y2="454.38"/>
  <line fill="none" fill-opacity="null" id="svg_53" stroke="#ff0000" stroke-dasharray="null" stroke-linecap="null" stroke-linejoin="null" stroke-opacity="null" stroke-width="3" transform="matrix(1, 0, 0, 1, 0, 0)" x1="4.09" x2="929.51" y1="421.16" y2="421.16"/>
  <line fill="none" fill-opacity="null" id="svg_47" stroke="#ff0000" stroke-dasharray="null" stroke-linecap="null" stroke-linejoin="null" stroke-opacity="null" stroke-width="3" transform="matrix(1, 0, 0, 1, 0, 0)" x1="4.42" x2="928.54" y1="321.8" y2="321.8"/>
  <line fill="none" fill-opacity="null" id="svg_46" stroke="#ff0000" stroke-dasharray="null" stroke-linecap="null" stroke-linejoin="null" stroke-opacity="null" stroke-width="3" transform="matrix(1, 0, 0, 1, 0, 0)" x1="5.71" x2="929.19" y1="305.35" y2="305.35"/>
  <line fill="none" fill-opacity="null" id="svg_43" stroke="#ff0000" stroke-dasharray="null" stroke-linecap="null" stroke-linejoin="null" stroke-opacity="null" stroke-width="3" transform="matrix(1, 0, 0, 1, 0, 0)" x1="4.42" x2="928.54" y1="255.67" y2="255.67"/>
  <line fill="none" fill-opacity="null" id="svg_42" stroke="#ff0000" stroke-dasharray="null" stroke-linecap="null" stroke-linejoin="null" stroke-opacity="null" stroke-width="3" x1="4.45" x2="930.19" y1="238.58" y2="238.58"/>
  <line fill="none" fill-opacity="null" id="svg_41" stroke="#ff0000" stroke-dasharray="null" stroke-linecap="null" stroke-linejoin="null" stroke-opacity="null" stroke-width="3" transform="matrix(1, 0, 0, 1, 0, 0)" x1="5.38" x2="928.54" y1="222.13" y2="222.13"/>
  <line fill="none" fill-opacity="null" id="svg_40" stroke="#ff0000" stroke-dasharray="null" stroke-linecap="null" stroke-linejoin="null" stroke-opacity="null" stroke-width="3" transform="matrix(1, 0, 0, 1, 0, 0)" x1="6.84" x2="928.06" y1="204.39" y2="204.39"/>
  <line fill="none" fill-opacity="null" id="svg_44" stroke="#ff0000" stroke-dasharray="null" stroke-linecap="null" stroke-linejoin="null" stroke-opacity="null" stroke-width="3" transform="matrix(1, 0, 0, 1, 0, 0)" x1="5.71" x2="928.87" y1="272.13" y2="272.13"/>
  <line fill="none" fill-opacity="null" id="svg_45" stroke="#ff0000" stroke-dasharray="null" stroke-linecap="null" stroke-linejoin="null" stroke-opacity="null" stroke-width="3" transform="matrix(1, 0, 0, 1, 0, 0)" x1="6.03" x2="930.16" y1="288.26" y2="288.26"/>
  <line fill="none" fill-opacity="null" id="svg_48" stroke="#ff0000" stroke-dasharray="null" stroke-linecap="null" stroke-linejoin="null" stroke-opacity="null" stroke-width="3" x1="6.06" x2="929.22" y1="339.22" y2="339.22"/>
  <line fill="none" fill-opacity="null" id="svg_49" stroke="#ff0000" stroke-dasharray="null" stroke-linecap="null" stroke-linejoin="null" stroke-opacity="null" stroke-width="3" transform="matrix(1, 0, 0, 1, 0, 0) matrix(1, 0, 0, 1, 0, 0)" x1="5.71" x2="928.54" y1="354.71" y2="354.71"/>
  <line fill="none" fill-opacity="null" id="svg_50" stroke="#ff0000" stroke-dasharray="null" stroke-linecap="null" stroke-linejoin="null" stroke-opacity="null" stroke-width="3" transform="matrix(1, 0, 0, 1, 0, 0)" x1="5.06" x2="929.19" y1="370.51" y2="370.51"/>
  <line fill="none" fill-opacity="null" id="svg_51" stroke="#ff0000" stroke-dasharray="null" stroke-linecap="null" stroke-linejoin="null" stroke-opacity="null" stroke-width="3" transform="matrix(1, 0, 0, 1, 0, 0)" x1="4.42" x2="929.19" y1="387.93" y2="387.93"/>
  <line fill="none" fill-opacity="null" id="svg_52" stroke="#ff0000" stroke-dasharray="null" stroke-linecap="null" stroke-linejoin="null" stroke-opacity="null" stroke-width="3" transform="matrix(1, 0, 0, 1, 0, 0)" x1="5.38" x2="930.16" y1="404.06" y2="404.06"/>
  <line fill="none" fill-opacity="null" id="svg_54" stroke="#ff0000" stroke-dasharray="null" stroke-linecap="null" stroke-linejoin="null" stroke-opacity="null" stroke-width="3" transform="matrix(1, 0, 0, 1, 0, 0)" x1="4.74" x2="929.19" y1="437.93" y2="437.93"/>
  <line fill="none" fill-opacity="null" id="svg_56" stroke="#ff0000" stroke-dasharray="null" stroke-linecap="null" stroke-linejoin="null" stroke-opacity="null" stroke-width="3" x1="3.77" x2="928.23" y1="454.07" y2="454.07"/>
  <line fill="none" fill-opacity="null" id="svg_32" stroke="#ff0000" stroke-dasharray="null" stroke-linecap="null" stroke-linejoin="null" stroke-opacity="null" stroke-width="3" transform="matrix(1, 0, 0, 1, 0, 0)" x1="203" x2="401.5" y1="55.5" y2="55.5"/>
  <line fill="none" fill-opacity="null" id="svg_33" stroke="#ff0000" stroke-dasharray="null" stroke-linecap="null" stroke-linejoin="null" stroke-opacity="null" stroke-width="3" x1="522.5" x2="730.5" y1="55.5" y2="55.5"/>
  <line fill="none" fill-opacity="null" id="svg_34" stroke="#ff0000" stroke-dasharray="null" stroke-linecap="null" stroke-linejoin="null" stroke-opacity="null" stroke-width="3" transform="matrix(1, 0, 0, 1, 0, 0)" x1="208.33" x2="725.33" y1="603.5" y2="603.5"/>
  <path d="m106.5,130c20,0 688.5,1.5 714.5,1.5c26,0 34.5,2 37,30.5c2.5,28.5 5.5,130 6,167c0.5,37 -3,174 -4,192c-1,18 -5,23 -19,23.5c-14,0.5 -729,0.5 -741,0c-12,-0.5 -25,-1 -27.5,-21.5c-2.5,-20.5 -4.5,-155 -4.5,-193c0,-38 4,-158 6,-175.5c2,-17.5 12.5,-24.5 32.5,-24.5z" fill="#000000" fill-opacity="null" id="svg_9" stroke="#ff0000" stroke-dasharray="null" stroke-linecap="null" stroke-linejoin="null" stroke-opacity="null" stroke-width="3"/>
  <rect fill="#000000" height="31" id="svg_35" stroke="#ff0000" stroke-dasharray="null" stroke-linecap="null" stroke-linejoin="null" stroke-opacity="null" stroke-width="3" width="79.5" x="428" y="563"/>
  <path d="m209.5,623c-2.5,-12 0.5,-20 0.5,-20c0,0 -2,-2 -3.17,-3.5" fill="#000000" fill-opacity="null" id="svg_36" stroke="#ff0000" stroke-dasharray="null" stroke-linecap="null" stroke-linejoin="null" stroke-opacity="null" stroke-width="3"/>
  <path d="m723.26,621.25c3.5,-11.5 -0.01,-19 0.49,-18l3.41,-4.58" fill="#000000" fill-opacity="null" id="svg_37" stroke="#ff0000" stroke-dasharray="null" stroke-linecap="null" stroke-linejoin="null" stroke-opacity="null" stroke-width="3"/>
  <path d="m203.27,56c-0.45,-11.36 4.55,-18.18 4.55,-18.64c0,-0.45 -4.55,18.64 -4.55,18.64" fill="#000000" fill-opacity="null" id="svg_7" stroke="#ff0000" stroke-dasharray="null" stroke-linecap="null" stroke-linejoin="null" stroke-opacity="null" stroke-width="3"/>
  <path d="m728.98,54.37c-0.45,-11.36 -3.09,-15.73 -2.69,-16.34c0.4,-0.6 2.69,16.34 2.69,16.34" fill="#000000" fill-opacity="null" id="svg_1" stroke="#ff0000" stroke-dasharray="null" stroke-linecap="null" stroke-linejoin="null" stroke-opacity="null" stroke-width="3"/>
  <rect fill="#000000" height="86.5" id="svg_24" stroke="#ff0000" stroke-dasharray="null" stroke-linecap="null" stroke-linejoin="null" stroke-opacity="null" stroke-width="3" width="226.5" x="119" y="140.5"/>
  <rect fill="#000000" fill-opacity="null" height="68.5" id="svg_25" stroke="#ff0000" stroke-dasharray="null" stroke-linecap="null" stroke-linejoin="null" stroke-opacity="null" stroke-width="3" width="207" x="128.5" y="149.5"/>
  <ellipse cx="94" cy="153.5" fill="#000000" fill-opacity="null" id="svg_26" rx="6" ry="6" stroke="#ff0000" stroke-dasharray="null" stroke-linecap="null" stroke-linejoin="null" stroke-opacity="null" stroke-width="3"/>
  <ellipse cx="359.5" cy="154" fill="#000000" fill-opacity="null" id="svg_27" rx="6" ry="6" stroke="#ff0000" stroke-dasharray="null" stroke-linecap="null" stroke-linejoin="null" stroke-opacity="null" stroke-width="3"/>
  <ellipse cx="839" cy="154" fill="#000000" fill-opacity="null" id="svg_28" rx="6" ry="6" stroke="#ff0000" stroke-dasharray="null" stroke-linecap="null" stroke-linejoin="null" stroke-opacity="null" stroke-width="3"/>
  <ellipse cx="94" cy="523.5" fill="#000000" fill-opacity="null" id="svg_29" rx="6" ry="6" stroke="#ff0000" stroke-dasharray="null" stroke-linecap="null" stroke-linejoin="null" stroke-opacity="null" stroke-width="3"/>
  <ellipse cx="467" cy="523.5" fill="#000000" fill-opacity="null" id="svg_30" rx="6" ry="6" stroke="#ff0000" stroke-dasharray="null" stroke-linecap="null" stroke-linejoin="null" stroke-opacity="null" stroke-width="3"/>
  <ellipse cx="839" cy="523.5" fill="#000000" fill-opacity="null" id="svg_31" rx="6" ry="6" stroke="#ff0000" stroke-dasharray="null" stroke-linecap="null" stroke-linejoin="null" stroke-opacity="null" stroke-width="3" transform="matrix(1, 0, 0, 1, 0, 0)"/>
  <path d="m822.82,46.54c37.44,0 37.49,56.95 0.21,56.67c-37.28,-0.28 -15.23,-0.41 -50.26,-0.18c-35.03,0.23 -35.49,-56.49 0.23,-56.49c35.72,0 12.38,0 49.82,0z" fill="#000000" fill-opacity="null" id="svg_8" stroke="#ff0000" stroke-dasharray="null" stroke-linecap="null" stroke-linejoin="null" stroke-opacity="null" stroke-width="3"/>
  <text fill="#ff0000" font-family="Helvetica" font-size="13" font-weight="bold" id="svg_62" stroke="#ff0000" stroke-dasharray="null" stroke-linecap="null" stroke-linejoin="null" stroke-opacity="null" stroke-width="0" text-anchor="middle" x="798" xml:space="preserve" y="121">BACK      START</text>
  
  <!-- Button A -->
  <ellipse cx="467.75" cy="368.5" fill="#000000" fill-opacity="null" id="svg_10" rx="47.75" ry="49.5" stroke="#ff0000" stroke-dasharray="null" stroke-linecap="null" stroke-linejoin="null" stroke-opacity="null" stroke-width="3"/>
  <ellipse cx="468.5" cy="368.5" fill="#0000ff" id="svg_11" rx="36.5" ry="37" stroke="#ff0000" stroke-dasharray="null" stroke-linecap="null" stroke-linejoin="null" stroke-opacity="null" stroke-width="3"/>
  <text fill="#ff0000" font-family="Helvetica" font-size="43" font-weight="bold" id="svg_6" stroke="#ff0000" stroke-dasharray="null" stroke-linecap="null" stroke-linejoin="null" stroke-opacity="null" stroke-width="0" text-anchor="middle" x="468" xml:space="preserve" y="382">A</text>
  
  <!-- Button B -->
  <ellipse cx="484" cy="257" fill="#000000" fill-opacity="null" id="svg_13" rx="47.75" ry="49.5" stroke="#ff0000" stroke-dasharray="null" stroke-linecap="null" stroke-linejoin="null" stroke-opacity="null" stroke-width="3"/>
  <ellipse cx="484.75" cy="257" fill="#0000ff" id="svg_12" rx="36.5" ry="37" stroke="#ff0000" stroke-dasharray="null" stroke-linecap="null" stroke-linejoin="null" stroke-opacity="null" stroke-width="3"/>
  <text fill="#ff0000" font-family="Helvetica" font-size="43" font-weight="bold" id="svg_38" stroke="#ff0000" stroke-dasharray="null" stroke-linecap="null" stroke-linejoin="null" stroke-opacity="null" stroke-width="0" text-anchor="middle" transform="matrix(1, 0, 0, 1, 0, 0)" x="484.99" xml:space="preserve" y="272">B</text>
  
  <!-- Button X -->
  <ellipse cx="578.5" cy="208.5" fill="#000000" fill-opacity="null" id="svg_15" rx="47.75" ry="49.5" stroke="#ff0000" stroke-dasharray="null" stroke-linecap="null" stroke-linejoin="null" stroke-opacity="null" stroke-width="3"/>
  <ellipse cx="579.25" cy="208.5" fill="#0000ff" id="svg_14" rx="36.5" ry="37" stroke="#ff0000" stroke-dasharray="null" stroke-linecap="null" stroke-linejoin="null" stroke-opacity="null" stroke-width="3"/>
  <text fill="#ff0000" font-family="Helvetica" font-size="43" font-weight="bold" id="svg_39" stroke="#ff0000" stroke-dasharray="null" stroke-linecap="null" stroke-linejoin="null" stroke-opacity="null" stroke-width="0" text-anchor="middle" x="578.99" xml:space="preserve" y="224">X</text>
  
  <!-- Button Y -->
  <ellipse cx="681.5" cy="220.5" fill="#000000" fill-opacity="null" id="svg_17" rx="47.75" ry="49.5" stroke="#ff0000" stroke-dasharray="null" stroke-linecap="null" stroke-linejoin="null" stroke-opacity="null" stroke-width="3" transform="matrix(1, 0, 0, 1, 0, 0)"/>
  <ellipse cx="682.25" cy="220.5" fill="#0000ff" id="svg_16" rx="36.5" ry="37" stroke="#ff0000" stroke-dasharray="null" stroke-linecap="null" stroke-linejoin="null" stroke-opacity="null" stroke-width="3" transform="matrix(1, 0, 0, 1, 0, 0)"/>
  <text fill="#ff0000" font-family="Helvetica" font-size="43" font-weight="bold" id="svg_57" stroke="#ff0000" stroke-dasharray="null" stroke-linecap="null" stroke-linejoin="null" stroke-opacity="null" stroke-width="0" text-anchor="middle" x="681.99" xml:space="preserve" y="237">Y</text>

  <!-- LRBW -->
  <ellipse cx="160" cy="185" fill="#0000ff" id="svg_18" rx="19" ry="21" stroke="#ff0000" stroke-dasharray="null" stroke-linecap="null" stroke-linejoin="null" stroke-opacity="null" stroke-width="3"/>
  <text fill="#ff0000" font-family="Helvetica" font-size="33" font-weight="bold" id="svg_58" stroke="#ff0000" stroke-dasharray="null" stroke-linecap="null" stroke-linejoin="null" stroke-opacity="null" stroke-width="0" text-anchor="middle" x="159.99" xml:space="preserve" y="197">L</text>

  <ellipse cx="206" cy="185" fill="#0000ff" id="svg_19" rx="19" ry="21" stroke="#ff0000" stroke-dasharray="null" stroke-linecap="null" stroke-linejoin="null" stroke-opacity="null" stroke-width="3"/>
  <text fill="#ff0000" font-family="Helvetica" font-size="33" font-weight="bold" id="svg_59" stroke="#ff0000" stroke-dasharray="null" stroke-linecap="null" stroke-linejoin="null" stroke-opacity="null" stroke-width="0" text-anchor="middle" transform="matrix(1, 0, 0, 1, 0, 0)" x="206" xml:space="preserve" y="197">R</text>

  <ellipse cx="255" cy="185" fill="#0000ff" id="svg_20" rx="19" ry="21" stroke="#ff0000" stroke-dasharray="null" stroke-linecap="null" stroke-linejoin="null" stroke-opacity="null" stroke-width="3" transform="matrix(1, 0, 0, 1, 0, 0)"/>
  <text fill="#ff0000" font-family="Helvetica" font-size="33" font-weight="bold" id="svg_60" stroke="#ff0000" stroke-dasharray="null" stroke-linecap="null" stroke-linejoin="null" stroke-opacity="null" stroke-width="0" text-anchor="middle" transform="matrix(1, 0, 0, 1, 0, 0)" x="255" xml:space="preserve" y="197">W</text>

  <ellipse cx="302" cy="185" fill="#0000ff" id="svg_21" rx="19" ry="21" stroke="#ff0000" stroke-dasharray="null" stroke-linecap="null" stroke-linejoin="null" stroke-opacity="null" stroke-width="3" transform="matrix(1, 0, 0, 1, 0, 0)"/>
  <text fill="#ff0000" font-family="Helvetica" font-size="33" font-weight="bold" id="svg_61" stroke="#ff0000" stroke-dasharray="null" stroke-linecap="null" stroke-linejoin="null" stroke-opacity="null" stroke-width="0" text-anchor="middle" transform="matrix(1, 0, 0, 1, 0, 0)" x="301" xml:space="preserve" y="197">K</text>

  <!-- Back -->
  <ellipse cx="774" cy="75" fill="#0000ff" id="svg_22" rx="19" ry="21" stroke="#ff0000" stroke-dasharray="null" stroke-linecap="null" stroke-linejoin="null" stroke-opacity="null" stroke-width="3" transform="matrix(1, 0, 0, 1, 0, 0)"/>

  <!-- Start -->
  <ellipse cx="823" cy="75" fill="#0000ff" id="svg_23" rx="19" ry="21" stroke="#ff0000" stroke-dasharray="null" stroke-linecap="null" stroke-linejoin="null" stroke-opacity="null" stroke-width="3" transform="matrix(1, 0, 0, 1, 0, 0)"/>
 </g>
</svg>