<?xml version="1.0" encoding="UTF-8" standalone="no"?>
<!-- Created with Inkscape (http://www.inkscape.org/) -->

<svg
   width="512"
   height="512"
   viewBox="0 0 135.46665 135.46665"
   version="1.1"
   id="svg6780"
   xml:space="preserve"
   xmlns="http://www.w3.org/2000/svg"
   xmlns:svg="http://www.w3.org/2000/svg"
   xmlns:rdf="http://www.w3.org/1999/02/22-rdf-syntax-ns#"
   xmlns:cc="http://creativecommons.org/ns#"
   xmlns:dc="http://purl.org/dc/elements/1.1/"><defs
     id="defs6774" /><metadata
     id="metadata6777"><rdf:RDF><cc:Work
         rdf:about=""><dc:format>image/svg+xml</dc:format><dc:type
           rdf:resource="http://purl.org/dc/dcmitype/StillImage" /></cc:Work></rdf:RDF></metadata><g
     id="obj_duke"
     style="display:inline"
     transform="translate(0,-161.53332)"><path
       style="display:inline;opacity:1;fill:#000000;fill-opacity:1;stroke:#ff0000;stroke-width:0.4;stroke-linecap:butt;stroke-linejoin:miter;stroke-miterlimit:4;stroke-dasharray:none;stroke-opacity:1"
       d="m 97.28021,271.87212 c 0,0 20.49821,-36.65138 19.73144,-49.99311 -0.76676,-13.34171 -16.76661,-24.79209 -16.76661,-24.79209 -14.446022,10.75634 -29.015941,10.64154 -31.716993,10.64154 -2.701049,0 -16.349263,0.22323 -31.771214,-10.64154 0,0 -15.999847,11.45038 -16.766612,24.79209 -0.766765,13.34173 19.731448,49.99313 19.731448,49.99313 0,0 11.651105,8.43445 28.779269,8.43443 17.128162,-2e-5 28.779272,-8.43445 28.779272,-8.43445 z"
       id="path1700-5-3" /><path
       style="display:inline;opacity:1;fill:#000000;fill-opacity:1;stroke:#ff0000;stroke-width:0.4;stroke-linecap:butt;stroke-linejoin:miter;stroke-miterlimit:4;stroke-dasharray:none;stroke-opacity:1"
       d="m 95.9844,270.65207 c 14.56511,18.98742 18.37013,22.02498 18.37013,22.02498 10.78585,1.32907 15.30623,-6.07558 15.53765,-15.06575 0.91677,-35.61522 -1.40323,-41.32721 -3.30775,-48.37132 -7.52507,-27.83259 -22.00171,-31.73744 -22.00171,-31.73744 -10.027332,12.21087 -25.142872,15.8357 -25.142872,15.8357 0,0 20.967262,17.08089 1.93753,34.96954 4.548891,7.14272 9.839031,15.34692 14.607022,22.34429 z"
       id="path4560-5-6" /><path
       id="path3746-3-7"
       d="M 40.929018,270.65207 C 26.363906,289.63949 22.558891,292.67705 22.558891,292.67705 11.773043,294.00612 7.252658,286.60147 7.021235,277.6113 c -0.916759,-35.61522 1.403229,-41.32721 3.307741,-48.37132 7.52508,-27.83259 22.001722,-31.73744 22.001722,-31.73744 10.027332,12.21087 25.142859,15.8357 25.142859,15.8357 0,0 -20.967245,17.08089 -1.937512,34.96954 -4.548881,7.14272 -9.839028,15.34692 -14.607027,22.34429 z"
       style="display:inline;opacity:1;fill:#000000;fill-opacity:1;stroke:#ff0000;stroke-width:0.4;stroke-linecap:butt;stroke-linejoin:miter;stroke-miterlimit:4;stroke-dasharray:none;stroke-opacity:1" /><ellipse
       ry="16.727493"
       rx="16.207613"
       cy="231.91682"
       cx="68.500938"
       id="path946-6-5"
       style="display:inline;opacity:1;fill:#000000;fill-opacity:1;stroke:#ff0000;stroke-width:0.4;stroke-miterlimit:4;stroke-dasharray:none;stroke-opacity:1" /><ellipse
       ry="15.054744"
       rx="14.586852"
       cy="231.91682"
       cx="68.500938"
       id="path946-2-2-3"
       style="display:inline;opacity:1;fill:#0000f3;fill-opacity:1;stroke:#ff0000;stroke-width:0.912;stroke-miterlimit:4;stroke-dasharray:none;stroke-opacity:1" /><ellipse
       transform="matrix(0.90132611,-0.43314114,0.42622539,0.904617,0,0)"
       ry="4.7858553"
       rx="3.1287167"
       cy="262.05618"
       cx="-4.1107149"
       id="path4588-3-27-2"
       style="display:inline;opacity:1;fill:#0000f3;fill-opacity:1;stroke:#ff0000;stroke-width:0.400006;stroke-miterlimit:4;stroke-dasharray:none;stroke-opacity:1" /><g
       aria-label="A"
       id="text4695-0-9"
       style="font-size:14.9809px;line-height:1.25;letter-spacing:0px;word-spacing:0px;display:inline;opacity:1;fill:#ff0000;stroke-width:0.353"><path
         d="m 106.57389,240.42519 q 0.26467,-0.72908 0.48938,-1.32831 0.22971,-0.59924 0.44443,-1.11858 0.21972,-0.51934 0.45942,-1.01371 h 0.47439 q 0.17978,0.37453 0.34457,0.75904 0.16479,0.38451 0.32958,0.79898 0.16479,0.41447 0.33956,0.88387 0.17977,0.46941 0.37952,1.01871 h -0.55929 q -0.0749,-0.22472 -0.1548,-0.43944 -0.0799,-0.21972 -0.14981,-0.42946 h -1.55302 q -0.0749,0.20974 -0.1548,0.42946 -0.0799,0.21472 -0.15481,0.43944 z m 0.97876,-1.28836 h 1.27837 q -0.0899,-0.24469 -0.17478,-0.46941 -0.0849,-0.22471 -0.16479,-0.42445 -0.0799,-0.20474 -0.1598,-0.38451 -0.0749,-0.18477 -0.14481,-0.34457 -0.0649,0.1598 -0.13982,0.34457 -0.0749,0.17977 -0.15481,0.38451 -0.0799,0.19974 -0.16479,0.42445 -0.0849,0.22472 -0.17477,0.46941 z"
         style="font-weight:500;font-size:4.99364px;line-height:3;font-family:Ubuntu;-inkscape-font-specification:'Ubuntu Medium'"
         id="path2124" /></g><ellipse
       transform="matrix(0.90132611,-0.43314114,0.42622539,0.904617,0,0)"
       ry="4.7858553"
       rx="3.1287167"
       cy="253.34637"
       cx="-11.001042"
       id="path4588-3-7-6-2"
       style="display:inline;opacity:1;fill:#0000f3;fill-opacity:1;stroke:#ff0000;stroke-width:0.400006;stroke-miterlimit:4;stroke-dasharray:none;stroke-opacity:1" /><g
       aria-label="X"
       id="text4695-5-0-7"
       style="font-size:14.9809px;line-height:1.25;letter-spacing:0px;word-spacing:0px;display:inline;opacity:1;fill:#ff0000;stroke-width:0.353"><path
         d="m 96.701031,235.53062 q 0.154803,-0.28963 0.339567,-0.58925 0.184765,-0.29961 0.394498,-0.60423 0.209733,-0.3096 0.434447,-0.61921 l -1.113582,-1.6479 h 0.614218 l 0.828944,1.26839 0.818957,-1.26839 h 0.584256 l -1.108588,1.64291 q 0.244688,0.32958 0.459415,0.64917 0.214726,0.3146 0.394497,0.60923 0.179771,0.29462 0.314599,0.55928 h -0.594243 q -0.09488,-0.19974 -0.244688,-0.43944 -0.144816,-0.24468 -0.314599,-0.49936 -0.169784,-0.25967 -0.334574,-0.48938 -0.10986,0.14482 -0.239695,0.33957 -0.129835,0.19475 -0.259669,0.39949 -0.129835,0.19975 -0.239695,0.37952 -0.104866,0.17977 -0.16479,0.3096 z"
         style="font-weight:500;font-size:4.99364px;line-height:3;font-family:Ubuntu;-inkscape-font-specification:'Ubuntu Medium'"
         id="path2121" /></g><ellipse
       transform="matrix(0.90132611,-0.43314114,0.42622539,0.904617,0,0)"
       ry="4.7858553"
       rx="3.1287167"
       cy="243.32051"
       cx="-5.9763765"
       id="path4588-3-6-2-9"
       style="display:inline;opacity:1;fill:#0000f3;fill-opacity:1;stroke:#ff0000;stroke-width:0.400006;stroke-miterlimit:4;stroke-dasharray:none;stroke-opacity:1" /><g
       aria-label="Y"
       id="text4695-2-6-3"
       style="font-size:14.9809px;line-height:1.25;letter-spacing:0px;word-spacing:0px;display:inline;opacity:1;fill:#ff0000;stroke-width:0.353"><path
         d="m 98.115171,224.28476 v -1.37825 q -0.174778,-0.26466 -0.339568,-0.52932 -0.159796,-0.26466 -0.309606,-0.52433 -0.149809,-0.25967 -0.294624,-0.51435 -0.139822,-0.25967 -0.274651,-0.51434 h 0.599237 q 0.189759,0.40448 0.414472,0.81895 0.224714,0.41448 0.474396,0.79899 0.159797,-0.25967 0.3146,-0.52933 0.159796,-0.26966 0.304612,-0.54431 0.144815,-0.27465 0.27465,-0.5443 h 0.564281 q -0.134828,0.25467 -0.279644,0.51434 -0.139822,0.25468 -0.289631,0.51435 -0.149809,0.25467 -0.309606,0.51934 -0.159796,0.25966 -0.334573,0.52433 v 1.38823 z"
         style="font-weight:500;font-size:4.99364px;line-height:3;font-family:Ubuntu;-inkscape-font-specification:'Ubuntu Medium'"
         id="path2118" /></g><ellipse
       transform="matrix(0.90132611,-0.43314114,0.42622539,0.904617,0,0)"
       ry="4.7858553"
       rx="3.1287167"
       cy="251.99681"
       cx="0.69634515"
       id="path4588-3-2-8-0"
       style="display:inline;opacity:1;fill:#0000f3;fill-opacity:1;stroke:#ff0000;stroke-width:0.400006;stroke-miterlimit:4;stroke-dasharray:none;stroke-opacity:1" /><g
       aria-label="B"
       id="text4695-7-7-6"
       style="font-size:14.9809px;line-height:1.25;letter-spacing:0px;word-spacing:0px;display:inline;opacity:1;fill:#ff0000;stroke-width:0.353"><path
         d="m 107.95738,229.2781 q -0.14481,0 -0.31459,-0.01 -0.16979,-0.01 -0.33957,-0.03 -0.16479,-0.025 -0.30461,-0.0549 v -3.34075 q 0.13482,-0.035 0.29961,-0.0549 0.16979,-0.02 0.33458,-0.03 0.16479,-0.01 0.30461,-0.01 0.40449,0 0.72907,0.0849 0.32459,0.0849 0.51435,0.28963 0.19475,0.19975 0.19475,0.5543 0,0.24968 -0.12484,0.43444 -0.12484,0.18477 -0.34956,0.27465 0.30961,0.0949 0.4744,0.29962 0.16978,0.20474 0.16978,0.5543 0,0.51434 -0.3945,0.77901 -0.39449,0.25966 -1.19348,0.25966 z m 0.03,-0.42945 q 0.27964,0 0.50935,-0.0499 0.2347,-0.0549 0.37452,-0.18476 0.13982,-0.13483 0.13982,-0.38451 0,-0.33457 -0.2347,-0.45941 -0.22971,-0.12485 -0.64418,-0.12485 h -0.6292 v 1.17351 q 0.0849,0.01 0.21473,0.02 0.12983,0.01 0.26966,0.01 z m -0.48439,-1.61794 h 0.5493 q 0.24969,0 0.42946,-0.0449 0.17977,-0.0449 0.27964,-0.16479 0.0999,-0.11985 0.0999,-0.32459 0,-0.28464 -0.2347,-0.39949 -0.2347,-0.11985 -0.63918,-0.11985 -0.14482,0 -0.26966,0.005 -0.12484,0.005 -0.21473,0.02 z"
         style="font-weight:500;font-size:4.99364px;line-height:3;font-family:Ubuntu;-inkscape-font-specification:'Ubuntu Medium'"
         id="path2115" /></g><ellipse
       transform="matrix(0.90132611,-0.43314114,0.42622539,0.904617,0,0)"
       ry="3.4322577"
       rx="2.2438123"
       cy="235.71582"
       cx="2.2281981"
       id="path4588-3-3-2-6"
       style="display:inline;opacity:1;fill:#0000f3;fill-opacity:1;stroke:#ff0000;stroke-width:0.400006;stroke-miterlimit:4;stroke-dasharray:none;stroke-opacity:1" /><ellipse
       transform="matrix(0.90132611,-0.43314114,0.42622539,0.904617,0,0)"
       ry="3.4322577"
       rx="2.2438123"
       cy="244.49788"
       cx="9.3329878"
       id="path4588-3-3-6-0-1"
       style="display:inline;opacity:1;fill:#0000f3;fill-opacity:1;stroke:#ff0000;stroke-width:0.400006;stroke-miterlimit:4;stroke-dasharray:none;stroke-opacity:1" /><ellipse
       ry="2.8187218"
       rx="4.0346408"
       cy="264.9577"
       cx="76.462502"
       id="path4586-2-8"
       style="display:inline;opacity:1;fill:#0000f3;fill-opacity:1;stroke:#ff0000;stroke-width:0.4;stroke-miterlimit:4;stroke-dasharray:none;stroke-opacity:1" /><ellipse
       ry="2.8187218"
       rx="4.0346408"
       cy="264.9577"
       cx="60.654415"
       id="path4586-6-3-7"
       style="display:inline;opacity:1;fill:#0000f3;fill-opacity:1;stroke:#ff0000;stroke-width:0.4;stroke-miterlimit:4;stroke-dasharray:none;stroke-opacity:1" /><path
       id="path972-2-3"
       d="m 94.411579,268.31553 c -5.235959,-2.74409 -9.212451,-6.51685 -9.32007,-12.4885 0,-6.88964 5.374791,-12.4748 12.00491,-12.4748 6.630131,0 12.432441,5.59844 12.004921,12.4748 -0.34155,5.49367 -5.1576,12.9369 -15.818281,10.73983 z"
       style="display:inline;opacity:1;fill:#000000;fill-opacity:1;stroke:#ff0000;stroke-width:0.4;stroke-miterlimit:4;stroke-dasharray:none;stroke-opacity:1" /><circle
       r="10.807422"
       cy="254.06604"
       cx="97.024658"
       id="path948-7-8-7"
       style="display:inline;opacity:1;fill:#000000;fill-opacity:1;stroke:#ff0000;stroke-width:0.4014;stroke-miterlimit:4;stroke-dasharray:none;stroke-opacity:1" /><circle
       r="10.807422"
       cy="228.21782"
       cx="31.082773"
       id="path948-6-2"
       style="display:inline;opacity:1;fill:#000000;fill-opacity:1;stroke:#ff0000;stroke-width:0.4014;stroke-miterlimit:4;stroke-dasharray:none;stroke-opacity:1" /><path
       id="path966-3-3"
       d="m 41.650924,269.46526 c -9.248172,0.28422 -15.923222,-6.17458 -15.923222,-13.84704 0,-7.67245 6.398227,-13.89221 14.290832,-13.89221 7.892619,0 14.290847,6.21976 14.290847,13.89221 0,3.83623 -1.26401,10.56867 -13.359569,15.01734 z"
       style="display:inline;opacity:1;fill:#000000;fill-opacity:1;stroke:#ff0000;stroke-width:0.4;stroke-miterlimit:4;stroke-dasharray:none;stroke-opacity:1" /><ellipse
       ry="13.030053"
       rx="13.438993"
       cy="254.74788"
       cx="39.82394"
       id="path843-1-6"
       style="display:inline;opacity:1;fill:#000000;fill-opacity:1;stroke:#ff0000;stroke-width:0.4;stroke-miterlimit:4;stroke-dasharray:none;stroke-opacity:1" /><circle
       r="11.167814"
       cy="254.72475"
       cx="40.004311"
       id="path837-0-9-1"
       style="display:inline;opacity:1;fill:#000000;fill-opacity:1;stroke:#ff0000;stroke-width:0.612029;stroke-miterlimit:4;stroke-dasharray:none;stroke-opacity:1" /><circle
       r="10.215247"
       cy="254.68861"
       cx="40.004311"
       id="path837-47-2"
       style="display:inline;opacity:1;fill:#000000;fill-opacity:1;stroke:#ff0000;stroke-width:0.4;stroke-miterlimit:4;stroke-dasharray:none;stroke-opacity:1" /><path
       id="path837-4-8-9"
       d="m 40.155766,258.76823 a 5.9988215,8.6186042 0 0 0 -5.338715,4.70696 10.215247,10.215247 0 0 0 5.186902,1.42877 10.215247,10.215247 0 0 0 5.439926,-1.57347 5.9988215,8.6186042 0 0 0 -5.288113,-4.56226 z"
       style="display:inline;opacity:1;fill:#0000ff;fill-opacity:1;stroke:#ff0000;stroke-width:0.4;stroke-miterlimit:4;stroke-dasharray:none;stroke-opacity:1" /><path
       id="path837-4-5-4-3"
       d="m 40.155766,250.59106 a 5.9988215,8.6186042 0 0 1 -5.338715,-4.70696 10.215247,10.215247 0 0 1 5.186902,-1.42877 10.215247,10.215247 0 0 1 5.439926,1.57347 5.9988215,8.6186042 0 0 1 -5.288113,4.56226 z"
       style="display:inline;opacity:1;fill:#0000ff;fill-opacity:1;stroke:#ff0000;stroke-width:0.4;stroke-miterlimit:4;stroke-dasharray:none;stroke-opacity:1" /><path
       id="path837-4-3-5-1"
       d="m 44.091266,254.55211 a 8.6186042,5.9988215 0 0 0 4.706961,5.33872 10.215247,10.215247 0 0 0 1.428766,-5.18692 10.215247,10.215247 0 0 0 -1.573467,-5.43991 8.6186042,5.9988215 0 0 0 -4.56226,5.28811 z"
       style="display:inline;opacity:1;fill:#0000ff;fill-opacity:1;stroke:#ff0000;stroke-width:0.4;stroke-miterlimit:4;stroke-dasharray:none;stroke-opacity:1" /><path
       id="path837-4-5-6-0-9"
       d="m 35.914098,254.5521 a 8.6186042,5.9988215 0 0 1 -4.706961,5.33873 10.215247,10.215247 0 0 1 -1.428766,-5.18692 10.215247,10.215247 0 0 1 1.573466,-5.43993 8.6186042,5.9988215 0 0 1 4.562261,5.28812 z"
       style="display:inline;opacity:1;fill:#0000ff;fill-opacity:1;stroke:#ff0000;stroke-width:0.4;stroke-miterlimit:4;stroke-dasharray:none;stroke-opacity:1" /><g
       aria-label="xemu"
       id="text879-9-5"
       style="font-size:14.3951px;line-height:1.25;letter-spacing:0px;word-spacing:0px;display:inline;opacity:1;fill:#ff0000;stroke-width:0.313802"><path
         d="m 59.380308,234.40063 q 0.224563,-0.3973 0.509586,-0.80324 0.285023,-0.40594 0.595957,-0.79461 0.310935,-0.39731 0.604595,-0.7687 l -1.623768,-2.10744 h 0.79461 l 1.269648,1.61513 1.166003,-1.61513 h 0.751424 l -1.494211,2.04698 q 0.29366,0.38003 0.58732,0.77734 0.29366,0.3973 0.570046,0.81188 0.285023,0.41458 0.509586,0.83779 h -0.785972 q -0.112282,-0.24183 -0.328209,-0.57004 -0.215926,-0.33685 -0.475038,-0.69097 -0.259112,-0.36275 -0.509586,-0.66505 -0.250475,0.29366 -0.535498,0.65642 -0.276386,0.36275 -0.518224,0.6996 -0.241837,0.33684 -0.371393,0.57004 z"
         style="font-size:8.63706px;font-family:'ubuntu mono';-inkscape-font-specification:'ubuntu mono'"
         id="path2090" /><path
         d="m 66.609522,234.50428 q -0.785972,0 -1.295559,-0.31093 -0.500949,-0.31958 -0.742787,-0.85507 -0.241837,-0.5355 -0.241837,-1.17464 0,-0.59596 0.181378,-1.03645 0.181378,-0.44049 0.483675,-0.72551 0.310934,-0.29366 0.682328,-0.43186 0.371393,-0.14683 0.760061,-0.14683 0.872343,0 1.364656,0.56141 0.492312,0.55277 0.492312,1.71014 0,0.0345 0,0.10364 0,0.0691 0,0.12956 h -3.29072 q 0.0691,0.7687 0.492313,1.166 0.431853,0.38867 1.217825,0.38867 0.44049,0 0.73415,-0.0691 0.29366,-0.0691 0.423216,-0.12955 l 0.09501,0.57004 q -0.103645,0.0777 -0.492313,0.16411 -0.38003,0.0864 -0.863706,0.0864 z m -1.580582,-2.7725 h 2.547933 q 0,-0.42321 -0.155467,-0.71687 -0.14683,-0.29366 -0.405942,-0.44913 -0.259112,-0.1641 -0.595957,-0.1641 -0.388668,0 -0.690965,0.19865 -0.29366,0.19001 -0.475038,0.50095 -0.181378,0.30229 -0.224564,0.6305 z"
         style="font-size:8.63706px;font-family:'ubuntu mono';-inkscape-font-specification:'ubuntu mono'"
         id="path2092" /><path
         d="m 69.183362,234.40063 v -4.36171 q 0.259112,-0.11228 0.500949,-0.1641 0.250475,-0.0605 0.492313,-0.0605 0.302297,0 0.561409,0.0864 0.259111,0.0864 0.44049,0.27638 0.224563,-0.18138 0.449127,-0.26775 0.224563,-0.095 0.449127,-0.095 0.250475,0 0.509586,0.13819 0.267749,0.13819 0.449128,0.41458 0.190015,0.27638 0.190015,0.69096 v 3.34254 h -0.656417 v -3.34254 q 0,-0.19865 -0.07773,-0.35412 -0.0691,-0.15546 -0.20729,-0.24183 -0.129556,-0.0864 -0.302297,-0.0864 -0.120919,0 -0.259112,0.0777 -0.129555,0.0691 -0.250474,0.21592 0.03455,0.0864 0.04318,0.18138 0.01727,0.095 0.01727,0.19002 v 1.6324 H 70.87622 v -1.60649 q 0,-0.3023 -0.120919,-0.49231 -0.112282,-0.19866 -0.449127,-0.19866 -0.09501,0 -0.215927,0.0259 -0.112282,0.0259 -0.250475,0.0691 v 3.92986 z"
         style="font-size:8.63706px;font-family:'ubuntu mono';-inkscape-font-specification:'ubuntu mono'"
         id="path2094" /><path
         d="m 76.041183,234.49564 q -0.64778,0 -1.036447,-0.25911 -0.388668,-0.25911 -0.561409,-0.71688 -0.172741,-0.4664 -0.172741,-1.06235 v -2.53066 h 0.67369 v 2.34064 q 0,0.88962 0.276386,1.25237 0.276386,0.36276 0.898254,0.36276 0.302298,0 0.578683,-0.0345 0.276386,-0.0345 0.336846,-0.0605 v -3.86076 h 0.67369 v 4.35308 q -0.241837,0.0605 -0.665053,0.13819 -0.414579,0.0777 -1.001899,0.0777 z"
         style="font-size:8.63706px;font-family:'ubuntu mono';-inkscape-font-specification:'ubuntu mono'"
         id="path2096" /></g><g
       aria-label="START"
       transform="matrix(1.0596495,0,0,0.94370829,0,1.2291667e-6)"
       id="text5074-7-9"
       style="font-size:17.1592px;line-height:1.25;letter-spacing:0px;word-spacing:0px;display:inline;opacity:1;fill:#ff0000;stroke-width:0.162134"><path
         d="m 70.163596,276.20712 q 0,0.21735 -0.157865,0.34776 -0.155576,0.12812 -0.44385,0.12812 -0.258532,0 -0.462154,-0.0984 v -0.3226 q 0.116682,0.0503 0.240228,0.0938 0.125834,0.0412 0.24938,0.0412 0.128122,0 0.180744,-0.048 0.05491,-0.0503 0.05491,-0.12583 0,-0.0618 -0.04347,-0.10524 -0.04118,-0.0435 -0.112107,-0.0801 -0.07092,-0.0389 -0.16244,-0.0824 -0.0572,-0.0275 -0.123546,-0.0641 -0.06635,-0.0389 -0.128122,-0.0938 -0.05948,-0.0572 -0.09838,-0.13727 -0.03889,-0.0801 -0.03889,-0.19218 0,-0.21964 0.148713,-0.3409 0.148713,-0.12355 0.404956,-0.12355 0.128122,0 0.242517,0.0297 0.116682,0.0297 0.242516,0.0847 l -0.112107,0.26997 q -0.112106,-0.0458 -0.201334,-0.0709 -0.08923,-0.0252 -0.183031,-0.0252 -0.09838,0 -0.151001,0.0458 -0.05262,0.0457 -0.05262,0.11897 0,0.0869 0.07779,0.13727 0.07779,0.0503 0.231077,0.12355 0.125834,0.0595 0.212774,0.12354 0.08923,0.0641 0.137273,0.151 0.04805,0.0869 0.04805,0.21506 z"
         style="font-weight:bold;font-size:2.28789px;-inkscape-font-specification:'sans-serif Bold'"
         id="path2079" /><path
         d="m 71.090192,276.66013 h -0.345471 v -1.34528 H 70.30087 v -0.28828 h 1.233173 v 0.28828 h -0.443851 z"
         style="font-weight:bold;font-size:2.28789px;-inkscape-font-specification:'sans-serif Bold'"
         id="path2081" /><path
         d="m 72.625369,276.66013 -0.118971,-0.38895 h -0.594851 l -0.11897,0.38895 h -0.372926 l 0.576548,-1.64042 h 0.423259 l 0.578837,1.64042 z m -0.320305,-1.0593 q -0.01144,-0.0389 -0.02974,-0.0984 -0.0183,-0.0595 -0.03661,-0.12125 -0.0183,-0.0618 -0.02974,-0.10754 -0.01144,0.0458 -0.03203,0.1144 -0.0183,0.0663 -0.03661,0.12812 -0.01602,0.0595 -0.02517,0.0846 l -0.116682,0.37979 h 0.425547 z"
         style="font-weight:bold;font-size:2.28789px;-inkscape-font-specification:'sans-serif Bold'"
         id="path2083" /><path
         d="m 73.680087,275.02657 q 0.334032,0 0.491896,0.12126 0.160153,0.12126 0.160153,0.36835 0,0.11211 -0.04347,0.19676 -0.04118,0.0824 -0.112107,0.14185 -0.06864,0.0572 -0.148713,0.0938 l 0.480457,0.71154 h -0.384365 l -0.388942,-0.62689 h -0.185319 v 0.62689 h -0.345471 v -1.63356 z m -0.02517,0.2837 h -0.105243 v 0.44156 h 0.112107 q 0.171592,0 0.244804,-0.0572 0.0755,-0.0572 0.0755,-0.16931 0,-0.11668 -0.08008,-0.16473 -0.07779,-0.0503 -0.247092,-0.0503 z"
         style="font-weight:bold;font-size:2.28789px;-inkscape-font-specification:'sans-serif Bold'"
         id="path2085" /><path
         d="m 75.343383,276.66013 h -0.345472 v -1.34528 H 74.55406 v -0.28828 h 1.233173 v 0.28828 h -0.44385 z"
         style="font-weight:bold;font-size:2.28789px;-inkscape-font-specification:'sans-serif Bold'"
         id="path2087" /></g><g
       aria-label="BACK"
       transform="matrix(1.0596495,0,0,0.94370829,0,1.2291667e-6)"
       id="text5074-1-9-0"
       style="font-size:17.1592px;line-height:1.25;letter-spacing:0px;word-spacing:0px;display:inline;opacity:1;fill:#ff0000;stroke-width:0.162134"><path
         d="m 54.765877,275.04571 q 0.327168,0 0.494184,0.0915 0.167016,0.0915 0.167016,0.32259 0,0.13957 -0.06635,0.23566 -0.06406,0.0961 -0.185319,0.11668 v 0.0114 q 0.08236,0.016 0.148713,0.0572 0.06635,0.0412 0.105243,0.11897 0.03889,0.0778 0.03889,0.20591 0,0.22192 -0.160152,0.34776 -0.160152,0.12583 -0.439275,0.12583 H 54.25796 v -1.63355 z m 0.03889,0.64747 q 0.151001,0 0.208198,-0.048 0.05949,-0.048 0.05949,-0.13956 0,-0.0938 -0.06864,-0.13498 -0.06864,-0.0412 -0.21735,-0.0412 h -0.183031 v 0.36377 z m -0.201334,0.27455 v 0.42554 h 0.226501 q 0.155576,0 0.217349,-0.0595 0.06177,-0.0618 0.06177,-0.16244 0,-0.0915 -0.06406,-0.14643 -0.06177,-0.0572 -0.226502,-0.0572 z"
         style="font-weight:bold;font-size:2.28789px;-inkscape-font-specification:'sans-serif Bold'"
         id="path2070" /><path
         d="m 56.795237,276.67926 -0.11897,-0.38894 h -0.594851 l -0.118971,0.38894 h -0.372926 l 0.576549,-1.64042 h 0.423259 l 0.578836,1.64042 z m -0.320304,-1.05929 q -0.01144,-0.0389 -0.02974,-0.0984 -0.0183,-0.0595 -0.03661,-0.12126 -0.0183,-0.0618 -0.02974,-0.10753 -0.01144,0.0458 -0.03203,0.11439 -0.0183,0.0663 -0.03661,0.12813 -0.01602,0.0595 -0.02517,0.0847 l -0.116682,0.37979 h 0.425547 z"
         style="font-weight:bold;font-size:2.28789px;-inkscape-font-specification:'sans-serif Bold'"
         id="path2072" /><path
         d="m 58.021547,275.3111 q -0.199047,0 -0.30429,0.14871 -0.105243,0.14872 -0.105243,0.40725 0,0.26082 0.09609,0.40496 0.09838,0.14185 0.313441,0.14185 0.100667,0 0.199046,-0.0229 0.100667,-0.0229 0.21735,-0.0641 v 0.29056 q -0.107531,0.0435 -0.212774,0.0641 -0.105243,0.0206 -0.235653,0.0206 -0.251668,0 -0.416396,-0.10296 -0.16244,-0.10524 -0.240228,-0.29285 -0.07779,-0.18989 -0.07779,-0.44156 0,-0.24709 0.08923,-0.43699 0.08923,-0.18989 0.258532,-0.29742 0.171592,-0.10753 0.418684,-0.10753 0.121258,0 0.242516,0.032 0.123546,0.0297 0.235653,0.0824 l -0.112107,0.28141 q -0.09152,-0.0435 -0.185319,-0.0755 -0.09152,-0.032 -0.180743,-0.032 z"
         style="font-weight:bold;font-size:2.28789px;-inkscape-font-specification:'sans-serif Bold'"
         id="path2074" /><path
         d="m 60.098949,276.67926 h -0.393518 l -0.427835,-0.68865 -0.146425,0.10524 v 0.58341 H 58.7857 v -1.63355 h 0.345471 v 0.74814 q 0.03432,-0.0481 0.06864,-0.0961 0.03432,-0.048 0.06864,-0.0961 l 0.441562,-0.55595 h 0.384366 l -0.569685,0.72297 z"
         style="font-weight:bold;font-size:2.28789px;-inkscape-font-specification:'sans-serif Bold'"
         id="path2076" /></g></g><g
     id="obj_rstick"
     transform="matrix(1.0193148,0,0,0.99967056,-1.8936353,-161.34461)"
     style="display:inline"><ellipse
       style="display:inline;opacity:1;fill:#000000;fill-opacity:1;stroke:#ff0000;stroke-width:0.612029;stroke-miterlimit:4;stroke-dasharray:none;stroke-opacity:1"
       id="ellipse4584-9-2-9-5"
       cx="97.075813"
       cy="253.93823"
       rx="8.4370527"
       ry="8.6028471" /><ellipse
       ry="7.5358095"
       rx="7.3905797"
       cy="253.94643"
       cx="97.134262"
       id="path4623-7-9"
       style="display:inline;opacity:1;fill:#000000;fill-opacity:1;stroke:#ff0000;stroke-width:0.3;stroke-miterlimit:4;stroke-dasharray:none;stroke-opacity:1" /><path
       id="rect1662-3-2"
       d="m 96.82351,248.95026 v 2.68993 a 2.378386,2.378386 0 0 0 -1.95063,1.95298 h -2.692292 v 0.78438 h 2.689921 a 2.378386,2.378386 0 0 0 1.953001,1.95061 v 2.6923 h 0.78436 v -2.68993 a 2.378386,2.378386 0 0 0 1.950609,-1.95298 h 2.692301 v -0.78438 h -2.689931 a 2.378386,2.378386 0 0 0 -1.952979,-1.95061 v -2.6923 z"
       style="display:inline;opacity:1;fill:#000000;fill-opacity:1;stroke:#ff0000;stroke-width:0.4;stroke-miterlimit:4;stroke-dasharray:none;stroke-opacity:1" /></g><g
     id="obj_lstick"
     transform="matrix(1.0193148,0,0,0.99967056,-0.56658905,-161.65361)"
     style="display:inline"><ellipse
       ry="8.6028471"
       rx="8.4370527"
       cy="228.26886"
       cx="31.0828"
       id="ellipse4584-9-1-8"
       style="display:inline;opacity:1;fill:#000000;fill-opacity:1;stroke:#ff0000;stroke-width:0.612029;stroke-miterlimit:4;stroke-dasharray:none;stroke-opacity:1" /><path
       style="display:inline;opacity:1;fill:#000000;fill-opacity:1;stroke:#ff0000;stroke-width:0.3;stroke-miterlimit:4;stroke-dasharray:none;stroke-opacity:1"
       d="m 38.480702,228.27696 a 7.3905801,7.5358093 0 0 1 -7.390585,7.53581 7.3905801,7.5358093 0 0 1 -7.390572,-7.53581 7.3905801,7.5358093 0 0 1 7.390572,-7.5358 7.3905801,7.5358093 0 0 1 7.390585,7.5358 z"
       id="ellipse4584-2-9" /><path
       style="display:inline;opacity:1;fill:#000000;fill-opacity:1;stroke:#ff0000;stroke-width:0.4;stroke-miterlimit:4;stroke-dasharray:none;stroke-opacity:1"
       d="m 30.650924,222.9857 v 1.29751 a 4.149525,4.149525 0 0 0 -3.690136,3.7028 h -1.309375 v 0.85632 h 1.315709 a 4.149525,4.149525 0 0 0 3.683802,3.68775 v 1.31254 h 0.857118 v -1.31332 a 4.149525,4.149525 0 0 0 3.706736,-3.68697 h 1.292775 v -0.85632 h -1.294365 a 4.149525,4.149525 0 0 0 -3.705146,-3.70911 v -1.2912 z"
       id="rect1614-9-7" /></g></svg>
