<?xml version="1.0" encoding="UTF-8" standalone="no"?>
<!-- Created with Inkscape (http://www.inkscape.org/) -->

<svg
   width="256"
   height="64"
   viewBox="0 0 67.733325 16.933331"
   version="1.1"
   id="svg1164"
   xmlns="http://www.w3.org/2000/svg"
   xmlns:svg="http://www.w3.org/2000/svg">
  <defs
     id="defs1161" />
  <g
     id="obj_port"
     transform="translate(31.82749,-173.92662)"
     style="display:inline">
    <path
       style="display:inline;opacity:1;fill:none;fill-opacity:1;stroke:#ff0000;stroke-width:0.32021;stroke-linejoin:round;stroke-miterlimit:4;stroke-dasharray:none;stroke-opacity:1"
       d="m 16.709713,184.26014 c 1.196152,0 2.33774,0.14597 3.495467,-0.8116 0.195478,-0.16168 0.668953,-0.54225 1.038976,-0.93333 0.37001,-0.39108 1.145989,0.47824 1.12224,-1.84918 0.0081,-2.24789 -0.748778,-1.19506 -1.12293,-1.71275 -0.374194,-0.51769 -0.47678,-0.56428 -1.006808,-1.03058 -0.762452,-0.67078 -2.020993,-0.72435 -3.53324,-0.70945 h -3.192503 c -1.512247,-0.0149 -2.770787,0.0387 -3.5332406,0.70945 -0.530029,0.4663 -0.633316,0.51289 -1.007498,1.03058 -0.374165,0.51769 -1.130363,-0.53514 -1.122241,1.71275 -0.0237,2.32742 0.751528,1.4581 1.121538,1.84918 0.370024,0.39108 0.844203,0.77165 1.0396796,0.93333 1.157727,0.95757 2.309238,0.8116 3.510159,0.8116 1.579359,0 1.579359,0 3.190401,0 z"
       id="path3769-7" />
    <path
       style="display:inline;opacity:1;fill:none;fill-opacity:1;stroke:#ff0000;stroke-width:0.46497;stroke-linecap:butt;stroke-linejoin:miter;stroke-miterlimit:4;stroke-dasharray:none;stroke-opacity:1"
       d="m 14.447738,178.35789 c -1.353447,0.45167 -1.205926,0.35846 -2.460673,0.005 -1.339233,-0.37662 -1.570711,1.75683 -1.570711,1.75683 h 7.14e-4 9.235401 c 0,0 -0.230787,-2.13345 -1.57002,-1.75683 -1.254747,0.35287 -1.046814,0.45951 -2.460674,-0.005 -0.391347,-0.12876 -0.788286,-0.12876 -1.174042,0 z"
       id="path3771-8" />
    <path
       id="path3773-4"
       d="m 23.49354,181.16844 c 0.04482,3.43151 -3.783715,4.98433 -8.485378,4.96516 -4.686283,-0.0191 -8.5077576,-1.53283 -8.4853776,-4.96516 0.02233,-4.17995 3.7990416,-4.96514 8.4853776,-4.96514 4.686338,0 8.552545,0.80515 8.485378,4.96514 z"
       style="display:inline;opacity:1;fill:none;fill-opacity:1;stroke:#ff0000;stroke-width:0.319934;stroke-linejoin:round;stroke-miterlimit:4;stroke-dasharray:none;stroke-opacity:1" />
    <path
       id="path3775-5"
       d="m 7.8479354,179.94958 c -0.0237,2.32743 0.751528,1.45811 1.121538,1.84918 0.370024,0.39108 0.844203,0.77165 1.0396796,0.93333 1.157727,0.95757 2.309238,0.8116 3.510159,0.8116 h 3.190401 c 1.196152,0 2.33774,0.14597 3.495467,-0.8116 0.195478,-0.16168 0.668953,-0.54225 1.038976,-0.93333 0.37001,-0.39107 1.145989,0.47825 1.12224,-1.84918"
       style="display:inline;opacity:1;fill:none;fill-opacity:1;stroke:#ff0000;stroke-width:0.319934;stroke-linejoin:round;stroke-miterlimit:4;stroke-dasharray:none;stroke-opacity:1" />
    <path
       style="display:inline;opacity:1;fill:none;fill-opacity:1;stroke:#ff0000;stroke-width:0.32;stroke-linejoin:round;stroke-miterlimit:4;stroke-dasharray:none;stroke-opacity:1"
       d="m 23.861559,181.89878 c 0.04671,3.93627 -3.94782,5.7175 -8.85341,5.69551 -4.889546,-0.0219 -8.8767656,-1.75829 -8.8534236,-5.69551 0.02328,-4.79479 3.9638236,-5.69548 8.8534236,-5.69548 4.889598,0 8.92349,0.92357 8.85341,5.69548 z"
       id="path3777-0" />
  </g>
  <g
     id="obj_label_1"
     transform="translate(-9.182928,-164.34888)"
     style="display:inline">
    <circle
       style="display:inline;opacity:1;fill:none;fill-opacity:1;stroke:#ff0000;stroke-width:0.319934;stroke-miterlimit:4;stroke-dasharray:none;stroke-opacity:1"
       id="circle3767-4"
       cx="14.985794"
       cy="170.15175"
       r="3.5262306" />
    <g
       aria-label="1"
       id="text3781-3"
       style="font-size:4.78925px;line-height:1.25;letter-spacing:0px;word-spacing:0px;display:inline;fill:#ff0000;stroke-width:0.226087">
      <path
         d="m 14.903528,171.8974 v -2.79213 q -0.06705,0.0718 -0.19157,0.15325 -0.124521,0.0814 -0.272988,0.15805 -0.148466,0.0718 -0.296933,0.11973 l -0.105364,-0.27778 q 0.287355,-0.10057 0.517239,-0.25862 0.234674,-0.15804 0.454979,-0.42145 h 0.25383 v 3.31895 z"
         style="font-family:Ubuntu;-inkscape-font-specification:Ubuntu"
         id="path2717" />
    </g>
  </g>
  <g
     id="obj_label_2"
     transform="translate(-28.395339,-164.34888)"
     style="display:inline">
    <circle
       r="3.5262306"
       cy="170.15175"
       cx="42.822533"
       id="circle3785-1"
       style="display:inline;opacity:1;fill:none;fill-opacity:1;stroke:#ff0000;stroke-width:0.319934;stroke-miterlimit:4;stroke-dasharray:none;stroke-opacity:1" />
    <g
       aria-label="2"
       id="text3799-0"
       style="font-size:4.78925px;line-height:1.25;letter-spacing:0px;word-spacing:0px;display:inline;fill:#ff0000;stroke-width:0.226087">
      <path
         d="m 41.952137,171.8974 q 0,-0.0144 -0.0048,-0.0479 0,-0.0335 0,-0.0814 0,-0.30172 0.134099,-0.54597 0.138889,-0.24905 0.340037,-0.45498 0.201149,-0.21073 0.392719,-0.39272 0.162834,-0.15326 0.292144,-0.29215 0.134099,-0.14367 0.215516,-0.30172 0.08142,-0.15804 0.08142,-0.3544 0,-0.32088 -0.172413,-0.45977 -0.172413,-0.13889 -0.435821,-0.13889 -0.19636,0 -0.344826,0.0623 -0.143678,0.0575 -0.239463,0.1341 -0.091,0.0718 -0.134099,0.11494 l -0.186781,-0.24425 q 0.05268,-0.0575 0.172413,-0.14847 0.124521,-0.0958 0.311302,-0.16762 0.18678,-0.0718 0.421454,-0.0718 0.493292,0 0.742333,0.23946 0.249041,0.23947 0.249041,0.66092 0,0.24904 -0.114942,0.46456 -0.114942,0.21072 -0.301722,0.40708 -0.181992,0.19157 -0.38314,0.38314 -0.153256,0.14847 -0.301723,0.3113 -0.148467,0.15805 -0.244252,0.3161 -0.091,0.15325 -0.091,0.29693 h 1.546928 v 0.3113 z"
         style="font-family:Ubuntu;-inkscape-font-specification:Ubuntu"
         id="path2714" />
    </g>
  </g>
  <g
     id="obj_label_3"
     transform="translate(-57.174683,-164.34888)"
     style="display:inline">
    <circle
       style="display:inline;opacity:1;fill:none;fill-opacity:1;stroke:#ff0000;stroke-width:0.319934;stroke-miterlimit:4;stroke-dasharray:none;stroke-opacity:1"
       id="circle3803-3"
       cx="80.226204"
       cy="170.15175"
       r="3.5262306" />
    <g
       aria-label="3"
       id="text3817-2"
       style="font-size:4.78925px;line-height:1.25;letter-spacing:0px;word-spacing:0px;display:inline;fill:#ff0000;stroke-width:0.226087">
      <path
         d="m 80.143004,171.90309 q -0.201148,0 -0.368772,-0.0335 -0.167624,-0.0335 -0.282566,-0.0766 -0.114942,-0.0431 -0.162834,-0.067 l 0.091,-0.31609 q 0.06705,0.0383 0.258619,0.10536 0.196359,0.0623 0.474136,0.0623 0.292144,0 0.474136,-0.0814 0.181991,-0.0814 0.263408,-0.22989 0.08621,-0.15325 0.08621,-0.35919 0,-0.2682 -0.134099,-0.42146 -0.134099,-0.15325 -0.354405,-0.21551 -0.215516,-0.0623 -0.474135,-0.0623 h -0.07184 v -0.29215 h 0.134099 q 0.167624,0 0.340037,-0.0479 0.172413,-0.0527 0.287355,-0.18199 0.119731,-0.12931 0.119731,-0.36877 0,-0.20594 -0.08621,-0.32567 -0.08621,-0.11973 -0.229884,-0.17242 -0.138888,-0.0575 -0.306512,-0.0575 -0.249041,0 -0.397507,0.0718 -0.148467,0.0718 -0.244252,0.13889 l -0.148467,-0.27778 q 0.105364,-0.0718 0.306512,-0.16283 0.205938,-0.091 0.498082,-0.091 0.340037,0 0.555553,0.11016 0.215516,0.11015 0.32088,0.30172 0.105363,0.19157 0.105363,0.44061 0,0.27778 -0.153256,0.46456 -0.148466,0.18678 -0.38314,0.2682 0.177203,0.0479 0.335248,0.15804 0.158045,0.10536 0.258619,0.28736 0.100575,0.18199 0.100575,0.4454 0,0.27777 -0.134099,0.50287 -0.12931,0.22509 -0.397508,0.3544 -0.268198,0.12931 -0.680074,0.12931 z"
         style="font-family:Ubuntu;-inkscape-font-specification:Ubuntu"
         id="path2711" />
    </g>
  </g>
  <g
     id="obj_label_4"
     transform="translate(-76.387095,-164.34888)"
     style="display:inline">
    <circle
       style="display:inline;opacity:1;fill:none;fill-opacity:1;stroke:#ff0000;stroke-width:0.319934;stroke-miterlimit:4;stroke-dasharray:none;stroke-opacity:1"
       id="circle3821-6"
       cx="108.06294"
       cy="170.15175"
       r="3.5262306" />
    <g
       aria-label="4"
       id="text3835-1"
       style="font-size:4.78925px;line-height:1.25;letter-spacing:0px;word-spacing:0px;display:inline;fill:#ff0000;stroke-width:0.226087">
      <path
         d="m 108.33985,171.8974 v -0.88122 h -1.49425 v -0.22989 q 0.0862,-0.22509 0.23946,-0.50766 0.15805,-0.28256 0.35441,-0.58429 0.20115,-0.30651 0.42624,-0.59386 0.2251,-0.28736 0.45977,-0.52203 h 0.36398 v 2.14558 h 0.40709 v 0.29215 h -0.40709 v 0.88122 z m -1.13506,-1.17337 h 1.13506 v -1.73849 q -0.15805,0.16762 -0.32088,0.38314 -0.16284,0.21072 -0.31609,0.4454 -0.15326,0.22988 -0.28257,0.46455 -0.12452,0.23468 -0.21552,0.4454 z"
         style="font-family:Ubuntu;-inkscape-font-specification:Ubuntu"
         id="path2708" />
    </g>
  </g>
</svg>
