<svg width="1024" height="1024" xmlns="http://www.w3.org/2000/svg" xmlns:svg="http://www.w3.org/2000/svg">
 <g class="layer">
  <title>Layer 1</title>
  <!-- Headset -->
  <path d="m158.23,604.8c0,0 11.11,8.82 65.87,8.82c54.76,0 75.24,-10.95 74.95,-11.24c-0.29,-0.29 14.1,23.14 22.19,56.48c8.1,33.33 10.95,63.33 10.67,63.05c-0.29,-0.29 -38.76,21.71 -102.57,22.67c-63.81,0.95 -105.24,-21.43 -104.76,-21.43c0.48,0 -1.43,-26.67 10.48,-62.86c11.9,-36.19 21.43,-55.24 21.43,-55.24c0.58,-0.08 1.16,-0.17 1.74,-0.25z" fill="#000000" fill-opacity="null" id="svg_2" stroke="#ff0000" stroke-dasharray="null" stroke-linecap="null" stroke-linejoin="null" stroke-opacity="null" stroke-width="3"/>
  <path d="m132.19,166c-28.1,5.24 -38.57,8.57 -63.81,24.76c-25.24,16.19 -42.38,41.9 -40.95,58.57c1.43,16.67 5.71,37.14 6.19,37.14c0.48,0 9.52,2.38 13.81,-12.38c4.29,-14.76 18.1,-25.71 34.29,-35.71c16.19,-10 26.19,-15.24 46.19,-21.9c20,-6.67 29.05,-22.38 29.05,-24.76" fill="#000000" fill-opacity="null" id="svg_8" stroke="#ff0000" stroke-dasharray="null" stroke-linecap="null" stroke-linejoin="null" stroke-opacity="null" stroke-width="3" transform="matrix(1, 0, 0, 1, 0, 0)"/>
  <path d="m697,596c69,35 175,88 207,87c32,-1 83,-22 93,31c10,53 -49,63 -68,47c-19,-16 -17,-10 -48,-38c-31,-28 -209,-94 -213,-103c-4,-9 -40,-59 29,-24z" fill="#000000" id="svg_3" stroke="#ff0000" stroke-width="3" transform="matrix(1, 0, 0, 1, 0, 0)"/>
  <ellipse cx="501.45" cy="401.8" fill="#000000" fill-opacity="null" id="svg_7" rx="114.39" ry="83.88" stroke="#ff0000" stroke-dasharray="null" stroke-linecap="null" stroke-linejoin="null" stroke-opacity="null" stroke-width="3" transform="matrix(1, 0, 0, 1, 0, 0) matrix(0.96334, -0.268284, 0.268284, 0.96334, -89.4121, 149.26)"/>
  <path d="m559.48,345.57c-28.7,-7.83 -64.78,-13.04 -98.26,6.09c-33.48,19.13 -49.57,37.83 -52.61,60c-3.04,22.17 1.3,43.04 16.52,53.91c15.22,10.87 63.48,19.13 80,18.7c16.52,-0.43 70,-28.7 84.35,-46.96c14.35,-18.26 24.35,-46.09 5.65,-70.43c-18.7,-24.35 -35.65,-21.3 -35.65,-21.3l0,-0.01z" fill="#000000" fill-opacity="null" id="svg_29" stroke="#ff0000" stroke-dasharray="null" stroke-linecap="null" stroke-linejoin="null" stroke-opacity="null" stroke-width="3" transform="matrix(1, 0, 0, 1, 0, 0)"/>
  <path d="m547.3,361.22c-33.48,-7.83 -71.3,-1.74 -98.7,18.26c-27.39,20 -39.13,52.61 -26.09,73.48c13.04,20.87 57.39,26.96 83.48,24.78c26.09,-2.17 46.09,-10 62.61,-22.61c16.52,-12.61 17.83,-13.48 23.04,-26.09c5.22,-12.61 6.09,-24.78 -3.48,-40.43c-9.57,-15.65 -40.87,-27.39 -40.87,-27.39l0.01,0z" fill="#000000" fill-opacity="null" id="svg_30" stroke="#ff0000" stroke-dasharray="null" stroke-linecap="null" stroke-linejoin="null" stroke-opacity="null" stroke-width="3" transform="matrix(1, 0, 0, 1, 0, 0)"/>
  <path d="m513.83,367.74c-15.65,1.3 -33.91,2.17 -59.13,22.17c-25.22,20 -26.52,44.35 -25.65,59.57c0.87,15.22 39.57,36.96 79.57,30c40,-6.96 55.22,-17.83 68.26,-33.04c13.04,-15.22 14.78,-28.7 9.57,-43.48c-5.22,-14.78 -20,-24.78 -30,-29.13c-10,-4.35 -26.96,-7.39 -42.61,-6.09l-0.01,0z" fill="#000000" fill-opacity="null" id="svg_31" stroke="#ff0000" stroke-dasharray="null" stroke-linecap="null" stroke-linejoin="null" stroke-opacity="null" stroke-width="3" transform="matrix(1, 0, 0, 1, 0, 0)"/>
  <path d="m437.74,484.26c-12.17,-10.87 -12.17,-35.22 -7.39,-41.3c4.78,-6.09 30.43,-3.48 38.26,-0.43c7.83,3.04 10.43,3.91 16.61,7.48c6.17,3.57 14.7,10.78 16.87,17.74c2.17,6.96 3.91,9.13 0,16.52c-3.91,7.39 -54.35,6.52 -53.91,6.52c0.43,0 -10.43,-6.52 -10.43,-6.52l-0.01,-0.01z" fill="#000000" fill-opacity="null" id="svg_33" stroke="#ff0000" stroke-dasharray="null" stroke-linecap="null" stroke-linejoin="null" stroke-opacity="null" stroke-width="3" transform="matrix(1, 0, 0, 1, 0, 0)"/>
  <path d="m439.91,494.26c-4.78,-6.52 -4.35,-17.83 3.91,-23.91c8.26,-6.09 13.91,-7.83 24.78,-8.7c10.87,-0.87 16.52,1.74 22.61,7.39c6.09,5.65 -0.87,18.26 -1.22,17.91c-0.35,-0.35 -14,7.74 -25.74,9.04c-11.74,1.3 -24.35,-1.74 -24.35,-1.74l0.01,0.01z" fill="#000000" fill-opacity="null" id="svg_32" stroke="#ff0000" stroke-dasharray="null" stroke-linecap="null" stroke-linejoin="null" stroke-opacity="null" stroke-width="3" transform="matrix(1, 0, 0, 1, 0, 0)"/>
  <path d="m704.97,593.59c21.72,10.69 21.72,19.66 16.55,31.38c-5.17,11.72 -20,20.34 -39.66,12.07c-19.66,-8.28 -62.07,-25.17 -130.34,-63.79c-68.28,-38.62 -89.31,-48.97 -103.79,-62.76c-14.48,-13.79 -5.17,-26.55 0.69,-30.69c5.86,-4.14 17.59,-14.48 33.79,-4.48c16.21,10 61.38,35.17 102.07,57.93c40.69,22.76 120.69,60.34 120.69,60.34z" fill="#000000" fill-opacity="null" id="svg_6" stroke="#ff0000" stroke-dasharray="null" stroke-linecap="null" stroke-linejoin="null" stroke-opacity="null" stroke-width="3" transform="matrix(1, 0, 0, 1, 0, 0)"/>
  <path d="m716.27,160.05c6.49,2.43 15.68,40.27 15.95,56.49c0.27,16.22 -25.14,30.81 -24.32,10c0.81,-20.81 -2.97,-35.68 -9.73,-43.24c-6.76,-7.57 2.7,-23.51 2.97,-23.51c0.27,0 8.65,-2.16 15.14,0.27l-0.01,-0.01z" fill="#000000" fill-opacity="null" id="svg_13" stroke="#ff0000" stroke-dasharray="null" stroke-linecap="null" stroke-linejoin="null" stroke-opacity="null" stroke-width="3" transform="matrix(1, 0, 0, 1, 0, 0)"/>
  <path d="m718.07,160.14l-2.21,-7.72c0,0 -8.83,-7.45 -15.72,-12.97c-6.9,-5.52 -43.79,-46.9 -87.59,-44.48c-43.79,2.41 -64.14,17.59 -81.38,49.31c-17.24,31.72 -53.1,40 -72.07,39.31c-18.97,-0.69 -94.83,-20.69 -142.41,-21.03c-47.59,-0.34 -113.79,-1.72 -129.31,-1.38c-15.52,0.34 -55.17,0.69 -55.31,0.55c-0.14,-0.14 -1.93,2.55 -1.59,2.55c0.34,0 3.79,8.28 3.79,23.79c0,15.52 -2.72,25.12 -1.86,25.83c0.86,0.7 1.07,1.76 2.6,1.62c1.53,-0.14 44.09,-20.54 79.6,-25.02c35.52,-4.48 101.03,-0.34 127.59,1.72c26.55,2.07 72.41,14.48 104.83,17.24c32.41,2.76 45.52,0 66.55,-11.38c21.03,-11.38 43.1,-69.66 85.17,-70c42.07,-0.34 52.07,12.76 64.14,21.38c12.07,8.62 27.93,29.66 27.79,29.52c-0.14,-0.14 7.38,6 7.24,5.86c-0.14,-0.14 2.19,-10.55 7.16,-16.19c4.96,-5.64 12.98,-8.5 12.98,-8.5l0.01,0l0,-0.01z" fill="#000000" fill-opacity="null" id="svg_15" stroke="#ff0000" stroke-dasharray="null" stroke-linecap="null" stroke-linejoin="null" stroke-opacity="null" stroke-width="3"/>
  <path d="m707.03,227.03c0.34,0 26.55,-11.03 26.41,-11.17c-0.14,-0.14 3.59,0.83 4.62,22.55c1.03,21.72 -4.14,30.69 -10,32.41c-5.86,1.72 -15.52,0.34 -19.66,-17.93c-4.14,-18.28 -1.38,-25.86 -1.38,-25.86l0.01,0z" fill="#000000" fill-opacity="null" id="svg_14" stroke="#ff0000" stroke-dasharray="null" stroke-linecap="null" stroke-linejoin="null" stroke-opacity="null" stroke-width="3"/>
  <path d="m920.22,682c0.5,0.77 14.23,5.28 7.66,31.04c-6.57,25.76 -30.34,26.5 -28.04,26.11c2.31,-0.38 11.38,7.23 12.15,6.85c0.77,-0.38 19.06,4.2 30.06,-24.8c11,-29 -5.6,-41.82 -8.68,-41.43c-3.08,0.38 -13.66,1.46 -13.16,2.23l0.01,0z" fill="#000000" fill-opacity="null" id="svg_4" stroke="#ff0000" stroke-dasharray="null" stroke-linecap="null" stroke-linejoin="null" stroke-opacity="null" stroke-width="3" transform="matrix(1, 0, 0, 1, 0, 0)"/>
  <path d="m682.76,583.3c0.27,0.27 8.11,10.27 -0.54,24.59c-8.65,14.32 -28.65,15.68 -28.7,15.62c-0.05,-0.05 8.16,4.38 8.43,4.38c0.27,0 18.65,-2.7 27.03,-17.03c8.38,-14.32 1.62,-24.32 1.57,-24.38c-0.05,-0.05 -7.78,-3.19 -7.78,-3.19l-0.01,0.01z" fill="#000000" fill-opacity="null" id="svg_5" stroke="#ff0000" stroke-dasharray="null" stroke-linecap="null" stroke-linejoin="null" stroke-opacity="null" stroke-width="3"/>
  <path d="m697.85,590.19c-1.08,-0.81 5.95,9.73 -2.7,24.05c-8.65,14.32 -25.95,16.49 -23.84,17.24c2.11,0.76 4.38,3.03 6.27,3.3c1.89,0.27 15.95,-3.24 24.32,-17.57c8.38,-14.32 1.62,-24.32 1.57,-24.38c-0.05,-0.05 -4.54,-1.84 -5.62,-2.65l0,0.01z" fill="#000000" fill-opacity="null" id="svg_9" stroke="#ff0000" stroke-dasharray="null" stroke-linecap="null" stroke-linejoin="null" stroke-opacity="null" stroke-width="3"/>
  <path d="m710.83,597.76c1.08,1.08 5.41,9.19 -3.24,23.51c-8.65,14.32 -23.24,17.3 -25.46,16.16c-2.22,-1.14 6.54,2.76 9.51,2.49c2.97,-0.27 14.05,-2.16 22.43,-16.49c8.38,-14.32 4.32,-21.89 2.38,-23.3c-1.95,-1.41 -6.7,-3.46 -5.62,-2.38l0,0.01z" fill="#000000" fill-opacity="null" id="svg_10" stroke="#ff0000" stroke-dasharray="null" stroke-linecap="null" stroke-linejoin="null" stroke-opacity="null" stroke-width="3"/>
  <path d="m27.89,241.68c2.7,-15.41 5.68,-17.84 8.92,-17.84c3.24,0 6.22,7.57 6.49,22.7c0.27,15.14 -15.41,-4.86 -15.41,-4.86z" fill="#000000" fill-opacity="null" id="svg_20" stroke="#ff0000" stroke-dasharray="null" stroke-linecap="null" stroke-linejoin="null" stroke-opacity="null" stroke-width="3" transform="matrix(1, 0, 0, 1, 0, 0)"/>
  <path d="m482.52,462.96c-4.78,-3.48 -3.04,-13.04 -3.39,-13.39c-0.35,-0.35 7.3,2.09 15.57,-7.91c8.26,-10 0.87,21.3 0.52,20.96c-0.35,-0.35 -12.7,0.35 -12.7,0.35l0,-0.01z" fill="#000000" fill-opacity="null" id="svg_34" stroke="#ff0000" stroke-dasharray="null" stroke-linecap="null" stroke-linejoin="null" stroke-opacity="null" stroke-width="3" transform="matrix(1, 0, 0, 1, 0, 0)"/>
  <path d="m475.57,415.57c0,0 15.22,14.35 29.13,22.17c13.91,7.83 30.43,13.91 30.09,13.57c-0.35,-0.35 -3.57,6 -3.91,5.65c-0.35,-0.35 -14,-5.3 -30.09,-14.43c-16.09,-9.13 -29.13,-22.17 -29.48,-22.52c-0.35,-0.35 4.26,-4.43 4.26,-4.43l0,-0.01z" fill="#000000" fill-opacity="null" id="svg_37" stroke="#ff0000" stroke-dasharray="null" stroke-linecap="null" stroke-linejoin="null" stroke-opacity="null" stroke-width="3" transform="matrix(1, 0, 0, 1, 0, 0)"/>
  <path d="m28.43,264.11c0.54,-16.76 1.35,-30 7.3,-30c5.95,0 5.95,10.81 6.76,21.62c0.81,10.81 -14.05,8.38 -14.05,8.38l-0.01,0z" fill="#000000" fill-opacity="null" id="svg_18" stroke="#ff0000" stroke-dasharray="null" stroke-linecap="null" stroke-linejoin="null" stroke-opacity="null" stroke-width="3"/>
  <path d="m581,324c-15,-16 -32,-41 -70,-39c-38,2 -61.39,10.91 -82.09,23.91c-20.7,13 -35.91,26.09 -35.91,26.09c0,0 -1.26,-8 23.3,-28c24.57,-20 41.48,-22.52 57.35,-24.83c15.87,-2.3 49.57,-9.35 80.48,8.7c30.91,18.04 31.52,20.74 38.96,19.43c7.43,-1.3 -3.57,-11.17 -17.13,-20.78c-13.57,-9.61 -44.35,-26.65 -76.26,-27.09c-31.91,-0.43 -56.3,5.04 -76.48,15.74c-20.17,10.7 -34.52,35.17 -49.96,54.52c-15.43,19.35 -29.26,24.3 -47.26,33.3c-18,9 -37,10 -35,10c2,0 -18.83,7.91 7.61,10.61c26.43,2.7 33.13,-0.74 53.13,-11.43c20,-10.7 30.48,-19.87 59.87,-38.17c29.39,-18.3 43.74,-28.22 68.13,-33.83c24.39,-5.61 27.09,-5.57 48.39,-1.91c21.3,3.65 22.48,7.22 37.48,22.22c15,15 15.39,0.52 15.39,0.52z" fill="#000000" fill-opacity="null" id="svg_24" stroke="#ff0000" stroke-dasharray="null" stroke-linecap="null" stroke-linejoin="null" stroke-opacity="null" stroke-width="3" transform="matrix(1, 0, 0, 1, 0, 0)"/>
  <path d="m648.17,292.96c12.61,10.43 14.78,26.96 9.57,38.7c-5.22,11.74 -15.22,6.52 -22.61,-1.3c-7.39,-7.83 -9.13,-27.39 -9.48,-27.74c-0.35,-0.35 22.52,-9.65 22.52,-9.65l0,-0.01z" fill="#000000" fill-opacity="null" id="svg_38" stroke="#ff0000" stroke-dasharray="null" stroke-linecap="null" stroke-linejoin="null" stroke-opacity="null" stroke-width="3" transform="matrix(1, 0, 0, 1, 0, 0)"/>
  <path d="m566.43,350.78l12.7,-10.78l15.22,-21.74l10.43,-26.09c0,0 1.65,-33.13 2.09,-33.13c0.43,0 10.87,3.91 23.04,12.17c12.17,8.26 9.57,6.09 14.87,11.83c5.3,5.74 7.74,6.87 5.57,17.74c-2.17,10.87 -5.22,18.7 -16.96,29.57c-11.74,10.87 -20,20 -30.87,29.57c-10.87,9.57 -10.43,12.61 -7.39,23.48" fill="#000000" fill-opacity="null" id="svg_28" stroke="#ff0000" stroke-dasharray="null" stroke-linecap="null" stroke-linejoin="null" stroke-opacity="null" stroke-width="3" transform="matrix(1, 0, 0, 1, 0, 0)"/>
  <path d="m552.52,356.43c13.91,0.87 20,-3.48 26.96,-10.87c6.96,-7.39 20,-26.96 25.22,-39.57c5.22,-12.61 8.7,-32.17 5.65,-41.74c-3.04,-9.57 -6.96,-2.61 -7.3,-2.96c-0.35,-0.35 -8.35,10.78 -12.7,20.78c-4.35,10 -7.83,13.04 -6.43,19.65c1.39,6.61 0.78,5.57 2.96,6.87c2.17,1.3 7.83,-1.3 7.48,-1.65c-0.35,-0.35 -3.13,6.87 -10.52,17.3c-7.39,10.43 -8.26,17.39 -23.39,21.39" fill="#000000" fill-opacity="null" id="svg_25" stroke="#ff0000" stroke-dasharray="null" stroke-linecap="null" stroke-linejoin="null" stroke-opacity="null" stroke-width="3"/>
  <path d="m35.46,242.76c6.22,-0.54 14.05,31.35 16.76,34.32c2.7,2.97 24.86,22.16 38.92,28.11c14.05,5.95 73.51,26.49 96.49,31.35c22.97,4.86 57.3,11.62 77.57,11.89c20.27,0.27 50,-6.22 67.3,-21.89c17.3,-15.68 31.35,-39.73 43.78,-52.16c12.43,-12.43 23.24,-21.89 42.16,-30c18.92,-8.11 31.89,-12.43 46.76,-14.05c14.86,-1.62 24.86,-2.16 32.43,-2.43c7.57,-0.27 14.05,-0.27 20.54,0.27c6.49,0.54 14.32,1.35 21.08,2.7c6.76,1.35 14.32,4.32 17.57,5.14c3.24,0.81 8.92,2.97 23.51,10c14.59,7.03 23.24,15.95 23.19,15.89c-0.05,-0.05 1.41,21.41 -4,32.49c-5.41,11.08 -12.7,8.11 -12.76,8.05c-0.05,-0.05 -14.27,-17.78 -30.22,-24.81c-15.95,-7.03 -35.95,-14.32 -56.49,-14.86c-20.54,-0.54 -59.46,3.24 -76.49,13.51c-17.03,10.27 -37.57,34.05 -48.38,51.08c-10.81,17.03 -37.57,31.35 -51.89,37.3c-14.32,5.95 -38.38,14.86 -61.62,13.51c-23.24,-1.35 -60,-7.3 -88.38,-15.41c-28.38,-8.11 -68.11,-22.43 -90,-32.97c-21.89,-10.54 -46.76,-25.68 -50.81,-29.73c-4.05,-4.05 -3.51,-8.11 -3.51,-10.54c0,-2.43 -2.43,-14.59 -1.08,-25.95c1.35,-11.35 1.35,-20.27 7.57,-20.81z" fill="#000000" fill-opacity="null" id="svg_17" stroke="#ff0000" stroke-dasharray="null" stroke-linecap="null" stroke-linejoin="null" stroke-opacity="null" stroke-width="3" transform="matrix(1, 0, 0, 1, 0, 0)"/>
  <path d="m117.62,168.43c1.62,-6.22 1.35,-5.14 4.86,-5.68c3.51,-0.54 5.7,3.24 6.78,15.68c1.08,12.43 2.08,40.83 -4.41,42.45c-6.49,1.62 -4.26,-2.72 -4.32,-2.77c-0.05,-0.05 1.68,-0.49 1.62,-0.54c-0.05,-0.05 3.13,-7.29 1.78,-27.83c-1.35,-20.54 -2.27,-21.58 -2.32,-21.63c-0.05,-0.05 -4,0.32 -4,0.32l0.01,0z" fill="#000000" fill-opacity="null" id="svg_21" stroke="#ff0000" stroke-dasharray="null" stroke-linecap="null" stroke-linejoin="null" stroke-opacity="null" stroke-width="3"/>
  <path d="m110.25,170.2c1.62,-6.22 1.35,-5.14 4.86,-5.68c3.51,-0.54 5.7,3.41 6.78,15.84c1.08,12.43 2.41,42 -4.08,43.62c-6.49,1.62 -4.59,-4.05 -4.65,-4.11c-0.05,-0.05 1.68,-0.49 1.62,-0.54c-0.05,-0.05 3.3,-5.62 1.95,-26.16c-1.35,-20.54 -2.43,-23.24 -2.49,-23.3c-0.05,-0.05 -4,0.32 -4,0.32l0.01,0.01z" fill="#000000" fill-opacity="null" id="svg_22" stroke="#ff0000" stroke-dasharray="null" stroke-linecap="null" stroke-linejoin="null" stroke-opacity="null" stroke-width="3"/>
  <path d="m102.41,172.9c1.62,-6.22 1.18,-5.3 4.86,-6.01c3.68,-0.71 5.36,3.24 7.11,15.34c1.75,12.1 3.41,42.16 -3.08,43.78c-6.49,1.62 -7.93,-0.05 -6.48,-0.44c1.45,-0.39 2.18,-1.15 3.29,-1.54c1.11,-0.39 3.13,-8.29 1.78,-28.83c-1.35,-20.54 -3.43,-22.58 -3.49,-22.63c-0.05,-0.05 -4,0.32 -4,0.32l0.01,0.01z" fill="#000000" fill-opacity="null" id="svg_23" stroke="#ff0000" stroke-dasharray="null" stroke-linecap="null" stroke-linejoin="null" stroke-opacity="null" stroke-width="3"/>
  <path d="m480.78,462.52c0.87,-1.74 6.96,-5.65 10.43,-9.13c3.48,-3.48 7.83,-13.04 7.48,-13.39c-0.35,-0.35 13.83,9.04 13.48,8.7c-0.35,-0.35 -4,9.04 -7.48,12.96c-3.48,3.91 -11.3,9.13 -11.65,8.78c-0.35,-0.35 -13.13,-6.17 -12.26,-7.91l0,-0.01z" fill="#000000" fill-opacity="null" id="svg_36" stroke="#ff0000" stroke-dasharray="null" stroke-linecap="null" stroke-linejoin="null" stroke-opacity="null" stroke-width="3" transform="matrix(1, 0, 0, 1, 0, 0)"/>
  <path d="m539.64,200.24c15.45,-11.52 21.52,-26.36 27.58,-32.12c6.06,-5.76 15.15,-13.64 31.52,-17.27c16.36,-3.64 34.24,0.3 45.45,6.36c11.21,6.06 19.39,15.15 25.76,23.03c6.36,7.88 13.33,14.85 14.55,22.12c1.21,7.27 0.61,12.42 -1.21,21.52c-1.82,9.09 -10,17.27 -10,1.52c0,-15.76 -3.03,-23.94 -10,-34.55c-6.97,-10.61 -18.79,-19.39 -30,-22.12c-11.21,-2.73 -21.82,-2.73 -35.15,2.73c-13.33,5.45 -26.97,14.24 -38.79,19.09c-11.82,4.85 -53.03,13.33 -60.3,15.15c-7.27,1.82 -25.76,4.55 -27.88,6.67c-2.12,2.12 4.85,12.12 17.27,11.82c12.42,-0.3 33.64,-6.67 43.03,-9.09c9.39,-2.42 24.55,-6.97 41.21,-13.94c16.67,-6.97 33.03,-20 45.45,-19.7c12.42,0.3 18.79,3.33 27.27,12.12c8.48,8.79 12.73,20.91 12.73,31.21c0,10.3 -3.03,18.79 9.39,23.33c12.42,4.55 24.24,-4.24 25.15,-7.88c0.91,-3.64 12.73,-14.24 10,-29.39c-2.73,-15.15 -3.33,-20.3 -8.48,-28.18c-5.15,-7.88 -21.82,-25.15 -29.09,-31.21c-7.27,-6.06 -23.03,-19.39 -34.24,-20.3c-11.21,-0.91 -20,-6.97 -35.76,-2.42c-15.76,4.55 -26.06,8.18 -34.55,16.06c-8.48,7.88 -11.52,16.36 -20,26.67c-8.48,10.3 -18.18,23.33 -28.18,28.48" fill="#000000" fill-opacity="null" id="svg_42" stroke="#ff0000" stroke-dasharray="null" stroke-linecap="null" stroke-linejoin="null" stroke-opacity="null" stroke-width="3" transform="matrix(1, 0, 0, 1, 0, 0)"/>
  <path d="m519.64,197.21c-3.03,2.12 -16.97,8.48 -18.48,10.61c-1.52,2.12 31.52,-0.91 31.27,-1.15c-0.24,-0.24 23.27,-22.48 14.85,-16.97c-8.42,5.52 -24.61,5.39 -27.64,7.52l0,-0.01z" fill="#000000" fill-opacity="null" id="svg_43" stroke="#ff0000" stroke-dasharray="null" stroke-linecap="null" stroke-linejoin="null" stroke-opacity="null" stroke-width="0"/>
  <path d="m691.58,179.26c1.16,-8.84 5.58,-14.42 8.37,-17.44c2.79,-3.02 7.67,-8.84 15.58,-9.3" fill="#000000" fill-opacity="null" id="svg_1" stroke="#ff0000" stroke-dasharray="null" stroke-linecap="null" stroke-linejoin="null" stroke-opacity="null" stroke-width="3"/>

  <!-- Device -->
  <rect fill="#000000" fill-opacity="null" height="20.48" id="svg_19" stroke="#ff0000" stroke-dasharray="null" stroke-linecap="null" stroke-linejoin="null" stroke-opacity="null" stroke-width="3" transform="matrix(1, 0, 0, 1, 0, 0)" width="72.38" x="194.57" y="837.43"/>
  <rect fill="#000000" fill-opacity="null" height="114.29" id="svg_26" stroke="#ff0000" stroke-dasharray="null" stroke-linecap="null" stroke-linejoin="null" stroke-opacity="null" stroke-width="3" transform="matrix(1, 0, 0, 1, 0, 0)" width="159.05" x="149.81" y="728.38"/>
  <path d="m135.52,690.76l-8.38,-7.43c1.2,-1.43 1.66,-2.36 2.86,-3.79l-3.81,-3.83l0,-10.48l6.26,-1.43c1.25,-2.25 -5.02,-6.38 -4.55,-5.9c0.48,0.48 3.33,-8.57 3.05,-8.86c-0.29,-0.29 5.27,1.22 5.52,0.24c0.25,-0.98 -1.9,-4.71 -2.19,-5c-0.29,-0.29 9.33,-6.38 10.29,-5.9c0.95,0.48 8.1,4.76 7.81,4.48c-0.29,-0.29 -16.86,47.9 -16.86,47.9z" fill="#000000" fill-opacity="null" id="svg_27" stroke="#ff0000" stroke-dasharray="null" stroke-linecap="null" stroke-linejoin="null" stroke-opacity="null" stroke-width="3" transform="matrix(1, 0, 0, 1, 0, 0)"/>
  <rect fill="#000000" fill-opacity="null" height="9.52" id="svg_12" stroke="#ff0000" stroke-dasharray="null" stroke-linecap="null" stroke-linejoin="null" stroke-opacity="null" stroke-width="3" transform="matrix(1, 0, 0, 1, 0, 0)" width="50.48" x="202.67" y="604.1"/>
  <path d="m161.51,606.2c0,0 17.62,5.71 66.67,6.19c49.05,0.48 67.14,-7.62 66.86,-7.9c-0.29,-0.29 7.43,9.81 19.81,57.9c12.38,48.1 10.95,61.9 10.67,61.62c-0.29,-0.29 -38.76,19.33 -97.33,19.81c-58.57,0.48 -97.62,-18.57 -97.9,-18.86c-0.29,-0.29 4.57,-42.1 4.76,-40c0.19,2.1 -3.05,-9.71 1.24,-24.48c4.29,-14.76 10.48,-16.67 11.62,-18.38c1.14,-1.71 12.12,-35.4 13.62,-35.9l-0.02,0z" fill="#000000" fill-opacity="null" id="svg_11" stroke="#ff0000" stroke-dasharray="null" stroke-linecap="null" stroke-linejoin="null" stroke-opacity="null" stroke-width="3" transform="matrix(1, 0, 0, 1, 0, 0)"/>
  <ellipse cx="274.81" cy="695.52" fill="#000000" fill-opacity="null" id="svg_35" rx="28.33" ry="28.57" stroke="#ff0000" stroke-dasharray="null" stroke-linecap="null" stroke-linejoin="null" stroke-opacity="null" stroke-width="3" transform="matrix(1, 0, 0, 1, 0, 0)"/>
  <ellipse cx="277.9" cy="698.38" fill="#000000" fill-opacity="null" id="svg_39" rx="20.95" ry="20.48" stroke="#ff0000" stroke-dasharray="null" stroke-linecap="null" stroke-linejoin="null" stroke-opacity="null" stroke-width="3" transform="matrix(1, 0, 0, 1, 0, 0)"/>
  <ellipse cx="269.81" cy="656.48" fill="#000000" fill-opacity="null" id="svg_40" rx="5.71" ry="5.71" stroke="#ff0000" stroke-dasharray="null" stroke-linecap="null" stroke-linejoin="null" stroke-opacity="null" stroke-width="3" transform="matrix(1, 0, 0, 1, 0, 0)"/>
  <ellipse cx="228.05" cy="636.71" fill="#000000" id="svg_44" rx="6.44" ry="6.41" stroke="#ff0000" stroke-dasharray="null" stroke-linecap="null" stroke-linejoin="null" stroke-opacity="null" stroke-width="2"/>
  <ellipse cx="222.97" cy="642.06" fill="#ff0000" id="svg_45" rx="4.55" ry="4.09" stroke="#ff0000" stroke-dasharray="null" stroke-linecap="null" stroke-linejoin="null" stroke-opacity="null" stroke-width="0"/>
  <ellipse cx="233.58" cy="642.06" fill="#ff0000" id="svg_46" rx="4.55" ry="4.09" stroke="#ff0000" stroke-dasharray="null" stroke-linecap="null" stroke-linejoin="null" stroke-opacity="null" stroke-width="0" transform="matrix(1, 0, 0, 1, 0, 0)"/>
  <rect fill="#000000" height="13.48" id="svg_47" stroke="#ff0000" stroke-dasharray="null" stroke-linecap="null" stroke-linejoin="null" stroke-opacity="null" stroke-width="0" transform="matrix(1, 0, 0, 1, 0, 0)" width="8.03" x="224.03" y="636.61"/>
  <ellipse cx="144.79" cy="666.61" fill="#000000" id="svg_49" rx="0.15" ry="0" stroke="#ff0000" stroke-dasharray="null" stroke-linecap="null" stroke-linejoin="null" stroke-opacity="null" stroke-width="2"/>
  <ellipse cx="154.65" cy="666.95" fill="#000000" fill-opacity="null" id="svg_56" rx="10.81" ry="10.68" stroke="#ff0000" stroke-dasharray="null" stroke-linecap="null" stroke-linejoin="null" stroke-opacity="null" stroke-width="1.5"/>
  <ellipse cx="154.51" cy="666.95" fill="#000000" fill-opacity="null" id="svg_55" rx="8.51" ry="8.51" stroke="#ff0000" stroke-dasharray="null" stroke-linecap="null" stroke-linejoin="null" stroke-opacity="null" stroke-width="1.5" transform="matrix(1, 0, 0, 1, 0, 0)"/>
  <ellipse cx="154.38" cy="667.08" fill="#000000" fill-opacity="null" id="svg_54" rx="5.95" ry="5.95" stroke="#ff0000" stroke-dasharray="null" stroke-linecap="null" stroke-linejoin="null" stroke-opacity="null" stroke-width="1.5" transform="matrix(1, 0, 0, 1, 0, 0)"/>
  <path d="m155.19,664.65l12.65,-10.32l-19.73,-6.22l-8.92,9.73c0,0 -0.76,17.62 0.32,18.7c1.08,1.08 31.89,11.08 32.92,9.41c1.03,-1.68 -16.7,-15.62 -17.03,-15.68c-0.32,-0.05 -0.22,-5.62 -0.22,-5.62l0.01,0z" fill="#000000" fill-opacity="null" id="svg_57" stroke="#ff0000" stroke-dasharray="null" stroke-linecap="null" stroke-linejoin="null" stroke-opacity="null" stroke-width="0" transform="matrix(1, 0, 0, 1, 0, 0)"/>
  <path d="m150.39,664.33l2.33,-0.09l3.79,-3.18l-0.15,12.27l-3.79,-3.03l-2.42,-0.3l0.24,-5.67z" fill="#ff0000" id="svg_48" stroke="#ff0000" stroke-dasharray="null" stroke-linecap="null" stroke-linejoin="null" stroke-opacity="null" stroke-width="0"/>
  <path fill="#000000" fill-opacity="null" id="svg_53" stroke="#ff0000" stroke-dasharray="null" stroke-linecap="null" stroke-linejoin="null" stroke-opacity="null" stroke-width="0"/>
  <ellipse cx="296" cy="647.98" fill="#000000" id="svg_61" rx="4.69" ry="5.06" stroke="#ff0000" stroke-dasharray="null" stroke-linecap="null" stroke-linejoin="null" stroke-opacity="null"/>
  <rect fill="#000000" fill-opacity="null" height="6.05" id="svg_62" stroke="#ff0000" stroke-dasharray="null" stroke-linecap="null" stroke-linejoin="null" stroke-opacity="null" stroke-width="0" width="10.99" x="290.32" y="641.56"/>
  <path d="m293.28,641.8c0,0.86 -0.12,-3.46 2.72,-3.46c2.84,0 2.72,2.72 2.77,3.63c0.05,0.91 0.07,5.14 0.07,6c0,0.86 -0.25,3.09 -2.72,3.09c-2.47,0 -2.84,-1.85 -2.91,-2.79c-0.07,-0.94 0.07,-7.33 0.07,-6.47z" fill="#000000" fill-opacity="null" id="svg_59" stroke="#ff0000" stroke-dasharray="null" stroke-linecap="null" stroke-linejoin="null" stroke-opacity="null"/>
  <path d="m293.41,645.01l5.36,-0.2l-0.25,4.44l-1.23,1.36l-1.85,0.25l-1.73,-1.11l-0.62,-2.22l0.32,-2.52z" fill="#ff0000" id="svg_60" stroke="#ff0000" stroke-dasharray="null" stroke-linecap="null" stroke-linejoin="null" stroke-opacity="null" stroke-width="0"/>
  <line fill="none" fill-opacity="null" id="svg_63" stroke="#ff0000" stroke-dasharray="null" stroke-linecap="null" stroke-linejoin="null" stroke-opacity="null" x1="296.12" x2="296.12" y1="652.79" y2="655.88"/>
  <line fill="none" fill-opacity="null" id="svg_64" stroke="#ff0000" stroke-dasharray="null" stroke-linecap="null" stroke-linejoin="null" stroke-opacity="null" x1="293.28" x2="298.84" y1="655.91" y2="655.91"/>
 </g>
</svg>